<svg version="1.1" xmlns="http://www.w3.org/2000/svg" viewBox="0 0 435.95068359375 497.77093505859375" width="871.9013671875" height="995.5418701171875">
  <!-- svg-source:excalidraw -->
  
  <defs>
    <style>
      @font-face {
        font-family: "Virgil";
        src: url("https://excalidraw.com/Virgil.woff2");
      }
      @font-face {
        font-family: "Cascadia";
        src: url("https://excalidraw.com/Cascadia.woff2");
      }
    </style>
  </defs>
  <rect x="0" y="0" width="435.95068359375" height="497.77093505859375" fill="#ffffff"></rect><g stroke-linecap="round" transform="translate(230.840576171875 10) rotate(0 44.56561279296875 48.59259033203125)"><path d="M7.61 21.19 C7.61 21.19, 7.61 21.19, 7.61 21.19 M7.61 21.19 C7.61 21.19, 7.61 21.19, 7.61 21.19 M4.1 30.05 C13.27 20.97, 20.1 10.93, 24.87 6.15 M6.36 29.4 C14.34 19.77, 21.51 10.9, 26.36 5.58 M4.85 36.8 C10.58 29.45, 16.05 23.79, 31.48 5.18 M2.72 38.31 C11.02 27.79, 20.88 19.51, 31.3 7.75 M0.97 49.11 C12.18 36.84, 21.26 24.25, 37.44 4.07 M1.65 47.99 C10.83 34.6, 20.87 23.12, 37.7 5.74 M1.46 52.62 C11.37 41.76, 16.96 31.89, 44.09 2.08 M0.99 52.37 C13.73 38.83, 24.88 28, 43.61 4.03 M4.6 58.69 C21.8 35.56, 40.08 18.26, 52.59 1.57 M3.48 57.16 C16.09 41.98, 28.55 27.26, 51.08 2.25 M2.64 63.27 C17.97 48.49, 26.56 33.03, 54.13 3.23 M4.76 61.95 C19.83 41.87, 37.45 22.47, 54.62 2.61 M3.28 66.83 C27.36 44.22, 47.38 20.52, 59.27 4.69 M5.12 66.38 C25.46 41.98, 47.06 18.9, 59.87 5.75 M4.57 72.62 C18.85 54.43, 35.52 39.16, 60.88 7.52 M5.63 71.57 C24.95 50.24, 43.51 27.8, 62.74 5.91 M8.3 74.01 C21.76 61.41, 32.03 47.24, 65.6 6.62 M7.89 75.74 C27.02 53.48, 47.92 31.53, 66.24 7.65 M10.17 77.51 C26.15 60.31, 39.68 44.21, 71.31 9.72 M11.45 78.38 C29.43 57.16, 47.1 34.79, 70.14 11.43 M14.67 81.15 C27.31 62.09, 43.77 47.84, 74.58 10.76 M12.97 80.94 C29.45 62.93, 44.61 45.37, 73.79 12.3 M17.16 84.98 C35.5 61.24, 56.48 36.76, 74.92 15.39 M17.52 84.42 C33.21 64.96, 47.53 48.17, 76.58 15.59 M19.33 84.69 C39.53 65.43, 58.52 42.89, 80.07 19.05 M20.47 85.35 C37.53 66.39, 55.03 47.67, 78.57 18.23 M24.06 89.82 C35.73 70.77, 53.54 55.33, 79.66 24.03 M23.48 89.13 C35.95 75.62, 47.12 60.6, 80.37 23.98 M23.57 92.75 C46 66.85, 66.05 43.01, 83.24 25.32 M25 93.23 C40.8 74.66, 57 55.89, 82.52 26.55 M28.83 95.78 C48.9 72.81, 69.39 48.13, 84.52 28.1 M28.98 95.58 C44.15 75.86, 61.7 55.53, 83.94 29.27 M32.43 93.67 C45.02 81.39, 56.96 69.07, 86.12 35.66 M33.97 95.21 C46.46 80.23, 59.75 66.02, 86 34.27 M39.45 96.28 C49.22 82.15, 62.77 66.43, 90.35 39.3 M37.29 96.21 C55.07 74.73, 74.93 53.25, 89.63 36.57 M43.48 96.52 C60.94 76.33, 78.09 54.68, 88.18 43.37 M41.37 97.83 C55.43 81.77, 70.11 65.54, 89.43 42.33 M46.17 96.27 C56.53 86.99, 64.16 77.75, 88.48 47.57 M46.52 97.65 C61.21 81.03, 73.39 66.43, 89.35 49.39 M52.04 100.85 C62.76 86.42, 68.71 77.46, 90.35 52.74 M52.06 98.26 C63.71 84.99, 74.61 70.14, 90.22 54.28 M61.18 93.87 C67.98 87.14, 71.45 78.21, 87.92 61.02 M62.3 93.35 C71.43 81.28, 81.58 70.5, 88.8 62.58" stroke="#fa5252" stroke-width="0.5" fill="none"></path><path d="M49.03 -0.25 C56.83 0.07, 66.79 4.96, 73.07 10.83 C79.35 16.71, 84.19 26.42, 86.71 34.99 C89.22 43.57, 90.32 53.98, 88.19 62.28 C86.06 70.59, 80.25 78.95, 73.93 84.81 C67.61 90.67, 58.13 96.08, 50.26 97.43 C42.38 98.79, 33.85 96.68, 26.69 92.97 C19.52 89.26, 11.61 82.82, 7.26 75.19 C2.91 67.55, 0.52 56.17, 0.59 47.16 C0.65 38.16, 3.12 28.25, 7.64 21.15 C12.16 14.05, 19.68 7.81, 27.71 4.55 C35.74 1.3, 50.34 1.7, 55.8 1.62 C61.26 1.54, 60.68 3.46, 60.48 4.06 M50.47 0.65 C58.03 1.06, 66.67 6.3, 72.95 12.02 C79.22 17.74, 85.73 26.61, 88.13 34.97 C90.52 43.33, 90.12 53.54, 87.3 62.18 C84.48 70.82, 77.74 81.18, 71.22 86.82 C64.69 92.45, 56.17 95.09, 48.15 95.98 C40.13 96.88, 30.2 96.02, 23.09 92.21 C15.97 88.4, 9.27 80.65, 5.45 73.11 C1.62 65.56, -0.6 55.59, 0.12 46.93 C0.84 38.26, 5.14 28.34, 9.75 21.12 C14.36 13.91, 20.6 7.29, 27.77 3.63 C34.94 -0.04, 48.75 -0.47, 52.77 -0.87 C56.78 -1.27, 51.99 0.15, 51.86 1.22" stroke="#000000" stroke-width="1" fill="none"></path></g><g stroke-linecap="round" transform="translate(331.6295166015625 119.725341796875) rotate(0 44.56561279296875 48.59259033203125)"><path d="M7.23 22.19 C7.23 22.19, 7.23 22.19, 7.23 22.19 M7.23 22.19 C7.23 22.19, 7.23 22.19, 7.23 22.19 M3.91 31.72 C9.96 24.51, 14.28 19.88, 27.96 4.33 M5 32.22 C11.56 25.36, 17.31 17.9, 26.39 5.22 M1.08 42.02 C14.71 24.21, 26.98 9.49, 34.6 4.76 M0.64 40.6 C14.92 26.93, 25.75 12.55, 34.68 3.03 M-1.91 48.3 C13.12 31.99, 25.5 17.36, 40.88 0.18 M0.84 49.93 C12.68 33.99, 27.12 17.27, 40.16 2.93 M3.32 54.2 C20.57 32.98, 35.59 12.61, 48.01 1.92 M2.19 52.17 C16.01 36.95, 29.78 20.66, 46.85 0.27 M0.83 57.66 C19.24 36.97, 39.26 17.38, 50.09 2.73 M2.56 57.2 C17.73 40.43, 34.35 22.35, 52.81 0.43 M6.23 62.24 C19.8 43.72, 36.82 27.89, 56.2 3.21 M5.29 62.32 C18.81 47.67, 31.07 31.81, 55.5 2.42 M5.74 68.38 C23.03 46.17, 44.31 25.49, 59.23 4 M5.42 66.77 C21.22 47.62, 36.16 30.46, 58.84 5.3 M6.16 71.54 C17.87 55.46, 31.11 43.42, 64.03 6.98 M8.06 72.07 C24.06 50.7, 40.19 32.31, 62.74 6.59 M9.11 73.68 C24.68 57.98, 38.51 43.21, 65.59 9.94 M7.87 74.72 C26.24 56.13, 42.84 34.28, 67.47 9.2 M11.15 79.68 C30.5 57.13, 47.65 37.63, 72.48 8.04 M11.44 78.81 C27.92 59.13, 46.45 38.68, 70.42 10.05 M12.62 81.77 C35.99 55.03, 58.61 30.54, 73.01 12.99 M13.41 81.73 C37.23 55.32, 59.77 29.38, 74.54 11.5 M18.42 83.74 C31.85 68.36, 43.24 51.54, 76.73 16.22 M17.57 84.56 C30.03 68.75, 41.82 54.58, 77.12 15.73 M22.15 85.59 C40.97 64.2, 60.06 38.78, 80.48 19.58 M20.26 85.94 C39.28 64.67, 58.86 42.03, 80.13 17.68 M22.29 88.51 C43.09 66.26, 60.87 45.79, 80.01 21.28 M22.81 89.26 C47.01 62.06, 70.89 34.9, 81.09 22.18 M24.33 93.79 C45.79 66.9, 66.32 47.2, 84.01 26.58 M25 92.83 C47.06 66.4, 68.79 41.77, 83.41 24.87 M28.22 96 C41.22 82.09, 53.24 64.13, 85 29.96 M28.72 95.23 C45.56 75.8, 62.77 56.48, 86.57 29.59 M33.19 95.46 C51.61 78.51, 67.52 59.75, 87.43 32.08 M34.16 95.02 C50.46 76.83, 66.04 60.15, 88.47 33.58 M38.67 94.91 C49.11 82.46, 62.54 67.9, 86.55 37.98 M38.93 95.64 C55 76.65, 70.64 58.39, 87.59 38.82 M42.93 96.69 C51.59 84.39, 63.32 75.77, 89.76 43.94 M42.04 97.79 C55.05 83.08, 67.57 66.76, 88.63 45.24 M45.37 98.45 C63.57 77.9, 79.92 62.35, 88.23 52 M46.43 97.36 C56.83 86.86, 65.46 76.9, 89.42 50.33 M51.19 96.55 C63.93 82.74, 77.62 71.05, 89 58.4 M52.97 98.06 C64.24 85.47, 74.64 72.03, 89.29 57.87 M61.65 93.25 C72.43 82.36, 82.63 70.89, 89.05 59.92 M62.91 92.84 C71.35 83.08, 78.35 73.65, 90.41 61.48" stroke="#15aabf" stroke-width="0.5" fill="none"></path><path d="M48.92 -0.72 C56.69 -0.68, 66.04 4.52, 72.44 10.03 C78.85 15.54, 84.78 24.05, 87.34 32.32 C89.89 40.59, 89.93 50.94, 87.79 59.67 C85.64 68.39, 80.54 78.5, 74.46 84.68 C68.38 90.87, 59.39 95.49, 51.28 96.75 C43.18 98.02, 33.11 95.94, 25.84 92.28 C18.57 88.61, 12.07 82.11, 7.66 74.76 C3.25 67.42, -0.57 57, -0.63 48.22 C-0.69 39.45, 2.78 29.43, 7.3 22.11 C11.82 14.8, 17.99 7.57, 26.48 4.35 C34.97 1.13, 51.58 2.52, 58.21 2.79 C64.85 3.06, 66.56 5.17, 66.27 5.97 M25 5.78 C31.29 1.56, 39.85 0.77, 47.78 1.61 C55.72 2.45, 66.08 5.62, 72.61 10.82 C79.14 16.02, 84.66 24.74, 86.96 32.83 C89.26 40.92, 88.27 50.84, 86.4 59.36 C84.53 67.87, 81.42 77.93, 75.74 83.9 C70.06 89.87, 60.72 93.71, 52.32 95.18 C43.92 96.64, 32.63 95.96, 25.34 92.71 C18.05 89.45, 12.89 82.84, 8.59 75.65 C4.29 68.45, -0.43 58.64, -0.45 49.52 C-0.47 40.41, 4.26 28.16, 8.48 20.94 C12.69 13.72, 22.01 8.63, 24.86 6.21 C27.7 3.8, 25.17 5.98, 25.55 6.44" stroke="#000000" stroke-width="1" fill="none"></path></g><g stroke-linecap="round" transform="translate(336.8194580078125 261.81787109375) rotate(0 44.56561279296875 48.59259033203125)"><path d="M5.66 24.79 C5.66 24.79, 5.66 24.79, 5.66 24.79 M5.66 24.79 C5.66 24.79, 5.66 24.79, 5.66 24.79 M3.54 34.23 C9.43 25.14, 17.88 17.1, 24.87 7.39 M4.05 34.06 C9.68 27.37, 14.71 20.67, 25.76 8.76 M2.85 41.8 C10.91 28.55, 22.08 16.65, 34.16 7.53 M1.43 42.06 C9.55 32.15, 16.94 25.09, 32.43 6.17 M-1.01 50.15 C12.11 33.37, 26.89 18.33, 37.68 4.6 M0.62 49.68 C14.87 33.4, 28.31 15.47, 40.44 4.86 M2.47 55.84 C16.95 35.11, 32.24 19.24, 47.53 2.5 M0.44 54.32 C17.96 34.89, 34.38 17.04, 45.88 2.79 M2.75 57.17 C22.15 37.39, 42.68 13.02, 52.31 3.41 M2.28 57.67 C14.09 46.47, 24.51 34.18, 50.01 3.25 M4.9 62.77 C23.75 41.36, 45.3 17.96, 54.59 4.38 M4.98 63.37 C21.66 43.56, 37.09 25.91, 53.8 5.57 M7.85 64.84 C18.86 53.93, 31.38 39.98, 57.85 6.1 M6.25 66.71 C23.3 45.11, 42.37 24.97, 59.14 5.31 M7.93 70.78 C26.04 48.79, 48.19 25.68, 62.63 8.04 M8.47 71.42 C20.29 54.19, 35.12 38.51, 62.25 7.62 M7.65 76.94 C29.17 52.76, 51.54 28.3, 68.05 9.18 M8.68 75.78 C28.66 54.16, 45.39 34.27, 67.32 9.24 M11.98 80.02 C23.14 64.43, 37.26 52.56, 69.37 10.16 M11.1 79.23 C32.47 56.05, 53.08 31.06, 71.38 10.96 M14.46 81.28 C25.64 67.88, 39.11 52.69, 74.81 15.25 M14.42 82.94 C36.61 57.55, 59.19 31.83, 73.32 12.88 M16.82 86.69 C37.31 60.7, 56.4 36.88, 77.03 15.24 M17.64 85.19 C33.67 64.22, 51.32 44.94, 76.54 17.51 M19.07 87.19 C33.75 70.95, 44.32 59.74, 79.37 20.93 M19.42 87.91 C42.12 63.03, 63.53 38.01, 77.48 20.67 M22.38 91.04 C39.04 70.51, 57.44 49.63, 80.06 25.76 M23.13 90.32 C36.69 75.06, 50.31 57.64, 80.96 24.25 M27.3 92.58 C38.49 76.12, 56.94 58.81, 84.34 28.59 M26.34 92 C36.63 78.79, 48.76 65.32, 82.63 26.39 M29.91 95.09 C46.36 76.47, 58.73 58.27, 86.7 30.51 M29.14 94.98 C44.74 77.45, 60.4 60.63, 86.34 30.52 M34.65 96.57 C48.95 81.84, 61.46 65.32, 85.09 35.93 M34.21 95.85 C45.61 82.18, 58.51 68.43, 86.58 35.73 M37.97 94.36 C57.15 75.32, 74.2 54.62, 84.98 42.58 M38.7 95.61 C52.49 78.54, 66.98 63.83, 85.83 41.06 M44.38 94.63 C58.4 79.35, 76.09 63.47, 85.69 47.14 M45.48 95.5 C61.4 77.31, 75.7 60.01, 86.99 48.44 M50.67 95.71 C62.85 80.05, 80.02 63.35, 88.51 51.77 M49.58 95.58 C62.99 80.11, 76.96 66.92, 86.84 53.43 M54.15 95.21 C64.9 84.72, 77.76 71.15, 89.56 58.19 M55.66 96.1 C65.27 84.5, 74.02 74.6, 89.03 58.64 M66.67 89.47 C73.18 82.91, 79.13 74.73, 81.43 70.27 M66.25 90.28 C71.25 82.76, 76.64 76.75, 82.99 70.59" stroke="#40c057" stroke-width="0.5" fill="none"></path><path d="M45.13 0.34 C52.81 -0.02, 63.04 4.32, 69.72 9.34 C76.4 14.35, 82.29 22.39, 85.23 30.44 C88.17 38.49, 88.75 49.08, 87.36 57.63 C85.97 66.18, 82.34 75.49, 76.9 81.72 C71.46 87.95, 62.81 92.87, 54.71 94.99 C46.6 97.11, 36.03 97.45, 28.28 94.46 C20.53 91.46, 13.03 84.1, 8.21 77.02 C3.39 69.94, -0.18 60.64, -0.64 51.98 C-1.1 43.31, 1.35 32.65, 5.45 25.03 C9.55 17.42, 15.94 10.16, 23.97 6.28 C31.99 2.4, 47.85 2.12, 53.6 1.75 C59.36 1.38, 58.59 3.6, 58.48 4.09 M52.69 -0.08 C60.67 0.61, 70.63 7.43, 76.55 13.66 C82.48 19.89, 86.6 29.02, 88.24 37.32 C89.87 45.61, 89.34 54.95, 86.36 63.43 C83.38 71.9, 76.85 82.5, 70.38 88.17 C63.91 93.85, 55.62 97.17, 47.54 97.45 C39.46 97.73, 29 93.94, 21.9 89.85 C14.8 85.76, 8.5 80.53, 4.92 72.91 C1.35 65.3, -0.38 52.95, 0.46 44.17 C1.3 35.39, 5.29 26.99, 9.97 20.26 C14.64 13.53, 21.32 6.8, 28.51 3.78 C35.7 0.76, 49.15 2.26, 53.12 2.13 C57.09 1.99, 52.72 2.38, 52.32 2.97" stroke="#000000" stroke-width="1" fill="none"></path></g><g stroke-linecap="round" transform="translate(243.49078369140625 390.58575439453125) rotate(0 44.56561279296875 48.59259033203125)"><path d="M20.68 8.7 C20.68 8.7, 20.68 8.7, 20.68 8.7 M20.68 8.7 C20.68 8.7, 20.68 8.7, 20.68 8.7 M6.76 30.07 C11.07 25.5, 16.42 19.64, 28.54 3.85 M6.59 32.64 C10.63 26.81, 14.67 20.33, 29.92 5.83 M5.5 37.26 C17.06 23.27, 29.95 12, 39.51 -0.1 M5.77 38.93 C11.84 30.52, 20.71 21.58, 38.15 1.63 M4.94 43.57 C14.95 32.24, 26.66 19.09, 43.47 2.81 M4.46 45.52 C13.89 33.7, 21.72 25.26, 43.73 1.9 M5.57 52.12 C12.22 40.63, 23.78 31.03, 47.6 3.67 M4.05 52.8 C14.12 40.82, 25.8 26.51, 47.9 3.58 M2.51 59.06 C21.54 41.27, 35.91 21.67, 52.39 1.51 M3.01 58.44 C14.62 46.53, 25.13 34.67, 52.23 3.85 M5.68 62.79 C24.25 44.48, 40.93 22.08, 55.82 4.35 M6.28 63.84 C16.54 49.52, 29.04 34.08, 57.01 3.26 M5.32 67.88 C23.08 50.76, 37.81 30.12, 60.75 6.01 M7.19 66.27 C24.71 46.24, 43.68 24.81, 59.97 5.9 M8.08 69.24 C26.74 51.21, 44.22 31.98, 65.15 5.39 M8.72 70.27 C27.21 47.91, 47.34 25.04, 64.73 6.78 M11.82 74.61 C23.13 63.08, 34.18 48.4, 69.52 7.85 M10.65 76.31 C29.29 53.16, 49.57 32.83, 69.58 6.48 M12.47 78.67 C24.64 64.58, 40.54 46.45, 71.74 11.71 M11.67 80.21 C30.92 58.63, 48.37 37.07, 72.54 9.87 M12.81 83.29 C35.67 59, 56.66 34.25, 76.48 14.84 M14.47 83.5 C27.33 69.03, 39.79 53.79, 74.1 13.92 M19.27 85.45 C37.26 60.58, 57.49 39.89, 75.44 16.69 M17.77 84.63 C33.16 65.62, 50.27 47.9, 77.72 15.92 M20.83 88.16 C31.35 72.11, 46.99 59.6, 80.78 20.92 M21.54 88.11 C44.21 62.23, 66.73 35.39, 80.51 19.37 M25.07 88.7 C39.26 72.9, 53.06 54.81, 84.59 21.66 M24.34 89.93 C45.25 66.44, 63.95 44.13, 83.08 22.42 M27.66 89.97 C50.71 67.48, 72.86 41.49, 86.41 24.33 M27.07 91.14 C49.37 66.13, 71.36 40.99, 84.2 25.95 M31.22 95.26 C45.59 74.49, 60.39 60.16, 86 30.45 M31.11 93.87 C44.55 78.77, 58.7 63.52, 86 30.55 M36.77 97.4 C54.29 76.94, 70 54.27, 86.82 34.5 M36.04 94.67 C49.29 80.55, 62.5 65.3, 86.62 36.63 M39.84 95.43 C53.47 80.8, 65.46 64.4, 88.88 40.61 M41.09 94.38 C51.89 81.52, 65.13 66.48, 87.36 41.35 M45.39 93.59 C57.61 84.46, 69.22 69.61, 88.19 48.06 M46.26 95.41 C56.88 81.43, 68.32 70.73, 89.49 47.27 M52.51 92.72 C61.33 86.23, 69.04 76.47, 88.23 52.38 M52.38 94.26 C63.22 82.44, 76.29 68.1, 89.89 51.76 M57.29 92.7 C71.25 81.27, 82.09 68.9, 91.47 55.36 M58.18 94.26 C66.44 83.13, 76.41 74.51, 91.92 56.13 M61.65 96.91 C69.29 88.46, 75.24 77.87, 87.57 66.5 M62.47 95.22 C67.26 88.18, 73.6 82.63, 87.89 65.37" stroke="#e64980" stroke-width="0.5" fill="none"></path><path d="M41.35 -0.23 C49.01 -1.53, 59.33 1.11, 66.41 5.23 C73.48 9.35, 80.08 16.58, 83.8 24.52 C87.51 32.45, 89.47 43.85, 88.7 52.85 C87.92 61.85, 84.21 71.75, 79.14 78.53 C74.07 85.32, 65.78 90.8, 58.3 93.57 C50.81 96.34, 42.03 97.23, 34.22 95.15 C26.41 93.07, 16.98 87.49, 11.43 81.11 C5.89 74.72, 2.23 65.42, 0.96 56.85 C-0.31 48.28, 0.56 37.67, 3.79 29.69 C7.03 21.72, 13.07 14.1, 20.39 9.03 C27.71 3.97, 42.31 0.38, 47.7 -0.69 C53.09 -1.76, 53.07 1.61, 52.73 2.61 M38.84 1.7 C46.29 0.14, 57.66 1.86, 65.06 5.57 C72.47 9.28, 79.48 16.59, 83.26 23.94 C87.04 31.3, 88.01 40.93, 87.74 49.71 C87.48 58.49, 86.15 69.46, 81.69 76.61 C77.23 83.76, 68.93 89.43, 60.96 92.61 C52.98 95.79, 41.64 97.25, 33.86 95.69 C26.07 94.12, 19.8 89.29, 14.24 83.21 C8.68 77.14, 2.13 68.15, 0.5 59.22 C-1.14 50.29, 1.24 37.88, 4.42 29.64 C7.6 21.39, 13.49 14.66, 19.6 9.77 C25.7 4.87, 37.47 1.84, 41.05 0.26 C44.62 -1.32, 41.16 -0.47, 41.04 0.3" stroke="#000000" stroke-width="1" fill="none"></path></g><g stroke-linecap="round" transform="translate(108.1156005859375 387.08001708984375) rotate(0 44.56561279296875 48.59259033203125)"><path d="M9.15 19.88 C9.15 19.88, 9.15 19.88, 9.15 19.88 M9.15 19.88 C9.15 19.88, 9.15 19.88, 9.15 19.88 M3.98 30.22 C10.3 24.54, 15.33 17.4, 23.2 6.43 M6.55 29.98 C13.31 21.02, 19.41 14.91, 25.18 8.9 M-0.18 40.66 C8.56 31.28, 20.03 22.62, 31.03 4.06 M1.49 39.99 C8.4 33.44, 14.76 25.57, 32.76 5.29 M0.12 45.8 C8.54 38.2, 15.13 29.79, 39.23 3.78 M2.08 47.26 C14.67 29.95, 30.69 14.83, 38.32 4.33 M2.57 50.69 C18.06 33.94, 35.46 14.83, 45.26 3.1 M3.25 50.93 C18.97 34.32, 32.31 17.94, 45.18 4.42 M3.51 57.79 C14.75 44.46, 24.18 35.23, 48.39 1.79 M2.9 57.86 C16.4 42.78, 29.91 26.24, 50.73 4.04 M4.16 63.78 C26.16 39.73, 44.07 15.47, 55.1 2.68 M5.21 61.65 C24.72 38.68, 43.11 16.35, 54.02 3.8 M6.16 67.65 C23.58 48.03, 37.53 28.55, 59.32 6.68 M4.56 66.1 C21.84 48.07, 37.71 29.15, 59.22 5.81 M3.79 73.25 C19.53 57.54, 34.1 40, 61.26 8.64 M4.82 71.98 C27.27 46.84, 49.3 20.91, 62.65 6.77 M7.38 76.33 C28.32 53.72, 46.05 33.81, 66.29 9.9 M9.09 75.38 C19.42 63.13, 32.55 48.65, 64.92 8.78 M10.33 77.67 C29.04 60.02, 43.75 38.24, 70.44 11.58 M11.87 79.09 C30.51 56.5, 49.19 35.74, 68.6 12 M13.84 80.56 C27.77 64.95, 41.26 53.07, 74.62 11.44 M14.05 81.42 C27.2 65.81, 39.62 50.02, 73.69 13.67 M16.48 84.44 C36.68 58.87, 61.04 32.28, 76.76 14.64 M15.67 84.06 C35.68 61.37, 57.04 38.37, 75.99 14.28 M20.35 85.37 C42.21 61.65, 67.57 34.09, 80.08 20.85 M20.3 87.87 C38.02 67.33, 54.73 46.19, 78.53 18.86 M21.28 89.46 C37.55 71.03, 51.5 57.72, 79.8 23.51 M22.51 90.55 C36.96 72.01, 52.58 55.83, 80.56 23.56 M23.05 93.32 C39.73 77.62, 52.96 63.38, 80.8 28.44 M24.22 92.45 C38.02 77.29, 51.72 61.29, 82.42 26.55 M30.8 93.18 C42.84 75.14, 61.35 58.56, 84.4 29.12 M29.41 93.85 C46.99 75.01, 64.44 55.01, 84.49 30.57 M35.4 96.71 C50.02 77.37, 62.42 60.72, 85.26 33.55 M32.67 96.2 C53.01 73.8, 72.18 51.32, 87.39 34.06 M38.15 96.31 C55.55 76.04, 71.07 58.53, 88.19 37.73 M37.11 95.58 C58.81 73.12, 78.24 49.45, 88.93 37.95 M41.04 98.17 C58.02 83.44, 69.27 65.49, 90.39 43.06 M42.86 97.1 C50.61 86.95, 61.74 76.22, 89.61 43.33 M46.21 97.6 C57.7 87.26, 65.93 76.7, 89.56 50.61 M47.75 96.49 C57.97 87.9, 65.6 77.28, 88.94 50.96 M54.85 95.31 C63.85 86.53, 71.88 77.98, 88.8 55.4 M56.41 93.66 C65.43 83.18, 76.97 71.35, 89.57 55.91 M66.11 90.05 C71.81 82.06, 75.38 76.26, 88.2 62.55 M64.43 89.63 C71.81 81.09, 80.69 72.11, 87.07 64.92 M23 90.91 C23 90.91, 23 90.91, 23 90.91 M23 90.91 C23 90.91, 23 90.91, 23 90.91 M33 92.55 C24.54 86.47, 11.52 77.36, 5.65 71.12 M31.92 93.07 C23.04 86.5, 14.99 77.75, 6.9 71.53 M39.7 94.36 C28.35 87.25, 21.31 78.82, 6.07 64.6 M41.18 94.98 C29.9 86.3, 20.05 78.08, 4.28 63.97 M50.13 95.77 C30.71 82.96, 18.78 68.87, 2.38 56.29 M47.78 96.68 C35.86 87.77, 24.91 77.38, 3.07 57.46 M50.61 95.34 C37.78 82.31, 27.96 71.71, 2.68 52.22 M50.63 95.54 C35.05 80.19, 20.08 65.83, 2.92 51.88 M56.87 92.62 C35.28 73.96, 12.65 55.97, 2.41 46.19 M55.34 93.68 C37.93 77.92, 19.44 61.46, 1.01 45.13 M59.13 89.81 C38.85 72.04, 14.95 54.86, 3.71 41.15 M59.58 90.95 C38.17 72.4, 16.29 54.29, 2.74 40.89 M63.13 90.53 C39.95 68.69, 20.03 50.32, 4.38 38.24 M63.18 89.89 C46.48 75.86, 32.05 61.07, 2.87 36.82 M69.51 85.93 C45.88 67.1, 23.51 48.44, 6.61 30.68 M67.89 87.2 C52.61 73.86, 34.65 57.82, 5.45 32.83 M72.01 87.53 C51.52 65.54, 25.71 48.15, 7.09 29.46 M72.69 86.81 C47.04 63.51, 19.01 39.84, 6.18 27.98 M75.41 84.06 C61.15 68.33, 46.72 58.86, 8.54 24.63 M74.01 82.02 C58.36 68.9, 41.72 54.04, 7.14 24.1 M77.27 80.82 C55.8 63.32, 37.03 43.31, 9.82 18.93 M76.63 79.16 C56.87 61.7, 36.18 43.09, 9.1 20.71 M78.27 73.98 C57.83 57.55, 39.74 41.05, 10.91 18.51 M78.31 75.13 C56.17 55, 31.37 34.01, 11.8 17.93 M79.97 73.93 C56.87 53.04, 36.97 34.2, 14.34 13.8 M80.71 73.09 C56.44 51.97, 33.77 31.87, 15.47 14.75 M82.96 70.88 C59.61 49.79, 32.25 25.09, 18.35 10.97 M83.79 69.27 C59.8 49.58, 36.84 29.66, 17.33 12.7 M87.08 64.89 C63.82 48.18, 40.26 28.66, 21.11 10.74 M85.25 65.34 C70.33 51.56, 54.08 37.78, 19.96 9.95 M90.34 64.1 C67.36 42.78, 43.71 22.97, 25.16 7.16 M87.62 63.88 C68.96 46.22, 51 30.08, 24.98 6.39 M87.07 57.55 C71.56 40.75, 52.08 28.22, 29.07 6.49 M87.7 57.52 C75.56 46.18, 63.96 36.97, 26.93 5.79 M89.19 53.85 C77.38 40.62, 63.9 30.69, 32.65 2.62 M88.02 52.85 C71.01 36.67, 51.29 21.06, 31.68 1.47 M88.35 47.51 C69.64 30.66, 53.42 15.05, 34.65 1.22 M88.16 47.08 C68.71 30.2, 49.37 13.4, 36.37 1.77 M87.58 40.29 C77.66 32.83, 66.41 26.03, 44.13 2.62 M86.7 40.63 C77.78 31.69, 68.03 22.31, 42 1.2 M89.33 36.1 C72.5 23.66, 60.55 11.31, 46.72 1.91 M88.39 36.3 C75.9 26.59, 66.5 17.29, 47.9 -0.21 M83.99 25.18 C73.49 18.95, 63.74 9.71, 51.54 -1.63 M82.96 26.79 C72.17 17.55, 61.27 8.24, 51.87 0.85 M77.31 15.68 C73.37 13.67, 69.9 10.94, 68.51 7.47 M77.55 16.19 C74.6 14.2, 72.27 11.08, 68.02 7.92" stroke="#ced4da" stroke-width="0.5" fill="none"></path><path d="M51.89 1.3 C59.62 2.04, 68.47 7.22, 74.3 13.1 C80.13 18.98, 84.76 28.15, 86.88 36.6 C89 45.05, 89.47 55.57, 87.02 63.8 C84.56 72.03, 78.75 80.41, 72.15 85.99 C65.54 91.57, 55.62 96.49, 47.4 97.28 C39.18 98.08, 29.94 94.94, 22.83 90.76 C15.72 86.58, 8.57 79.78, 4.74 72.18 C0.91 64.58, -0.9 53.89, -0.15 45.17 C0.59 36.44, 4.11 26.74, 9.2 19.83 C14.29 12.91, 22.57 6.63, 30.38 3.69 C38.19 0.75, 50.82 2.26, 56.04 2.21 C61.26 2.17, 61.73 2.75, 61.72 3.43 M63.56 4.36 C70.91 7.22, 77.78 14.74, 82 21.8 C86.22 28.86, 89.09 37.73, 88.9 46.71 C88.71 55.69, 85.25 67.93, 80.86 75.67 C76.48 83.42, 69.95 89.94, 62.58 93.2 C55.21 96.47, 44.63 96.41, 36.63 95.24 C28.63 94.07, 20.36 91.89, 14.57 86.19 C8.79 80.49, 3.88 69.52, 1.91 61.04 C-0.06 52.55, 0.57 43.42, 2.75 35.26 C4.92 27.09, 8.69 17.66, 14.96 12.06 C21.22 6.45, 32.47 2.78, 40.33 1.63 C48.19 0.49, 58.71 4.63, 62.13 5.19 C65.55 5.74, 61.18 4.36, 60.85 4.99" stroke="#000000" stroke-width="1" fill="none"></path></g><g stroke-linecap="round" transform="translate(22.16473388671875 285.4232177734375) rotate(0 44.56561279296875 48.59259033203125)"><path d="M8.5 20.64 C8.5 20.64, 8.5 20.64, 8.5 20.64 M8.5 20.64 C8.5 20.64, 8.5 20.64, 8.5 20.64 M6.44 28.71 C13.05 21.46, 18.21 13.73, 24.87 7.22 M6.19 30.18 C12.57 20.67, 21.82 12.72, 27.34 5.72 M3.07 37.38 C14.21 28.28, 26.08 13.43, 32.11 2.37 M2.39 38.83 C11.35 29.48, 19 21.29, 33.34 3.1 M0.33 46.41 C11.84 33.79, 22.53 25.13, 38.53 4.75 M1.79 46.41 C16.37 30.28, 33.12 12.11, 39.08 3.72 M2.7 50.26 C19.48 34.24, 33.97 16.87, 45.3 2.9 M2.94 51.57 C12.41 39.54, 22.13 30.9, 46.62 0.79 M5.21 57.33 C16.6 41.45, 32.06 23.12, 50.03 1.14 M5.27 54.8 C16.48 42.7, 26.18 32.3, 52.27 2.25 M7.36 62.53 C21.54 42.91, 35.52 25.55, 54.23 5.05 M5.23 61.21 C21.18 40.73, 37.84 22.17, 55.35 3.35 M7.39 67.23 C26.64 41.78, 45.96 21.34, 60.04 5.07 M5.84 65.77 C20.91 49.15, 35.09 32.77, 59.17 4.57 M9.06 69.24 C27.25 49.97, 43.59 28.91, 63.8 8.81 M7.78 69.43 C29.86 44.86, 51.15 20.86, 61.93 7.06 M9.15 76.74 C20.18 61.78, 33.98 46.36, 66.87 6.89 M8.2 74.31 C23.87 58.57, 37.32 40.81, 65.75 8.77 M10.23 79.41 C33.48 52.93, 52.61 31.76, 70.35 11.18 M11.65 79.05 C29.84 56.58, 49.83 33.88, 70.77 9.87 M13.51 81.95 C32.47 60.05, 55.1 37.87, 72.02 10.95 M14.37 81.53 C34.57 56.98, 54.65 33.81, 74.25 13.13 M17.03 82.23 C33.73 64.92, 49.46 43.84, 75.71 16.61 M16.65 83.24 C39.02 59.79, 61.1 33.28, 75.36 16.86 M18.36 85.46 C36.25 70.29, 50.28 53.85, 79.49 20.09 M20.86 86.71 C34.95 68.88, 48.47 53.48, 77.51 19.56 M22.84 89.16 C36.7 71.06, 55.7 52.88, 81.14 22.54 M23.94 88.63 C40.53 68.69, 59.49 47.42, 81.19 22.78 M25.69 94.09 C46.48 70.29, 68.71 43.24, 84.3 25.56 M24.81 92.04 C44.56 70.51, 63.39 48.85, 82.41 26.59 M27.45 93.39 C46.53 73.82, 67.06 49.87, 83.31 31.1 M28.12 95.71 C46.45 75.92, 63.56 54.56, 84.76 30.72 M34.85 97.08 C48.37 75.92, 64.63 56.94, 85.96 35.38 M34.35 95.8 C46.98 81.15, 59.6 65.57, 86.47 34.67 M37.67 96.75 C47.43 83.18, 59.91 72.15, 85.75 42.66 M36.94 96.82 C47.5 85.11, 56.88 74.61, 85.97 40.7 M43.4 98.68 C57.17 81.94, 67.69 70.16, 85.18 45.31 M42.33 95.94 C60.06 77.91, 77.2 59.24, 85.45 46.15 M48.21 98.86 C59.8 84.87, 71.18 70.17, 86.72 51.07 M47.1 98.24 C57.49 86.94, 65.85 77.31, 87.07 51.89 M53.67 98.86 C61.29 90.53, 69.13 79.33, 85.61 59.25 M52.02 97.81 C64.58 85.96, 75.82 72.33, 86.11 58.73 M62.15 94.52 C69.51 82.14, 79.08 74.03, 87.21 63.35 M61.74 92.62 C70.16 84.51, 78.24 74.23, 89.58 63.28 M25.84 92.22 C25.84 92.22, 25.84 92.22, 25.84 92.22 M25.84 92.22 C25.84 92.22, 25.84 92.22, 25.84 92.22 M32.4 95.03 C28.59 86.28, 21.63 82.89, 9.13 72.86 M32.92 93.26 C25.1 86.42, 15.25 79.16, 9.54 71.92 M39.88 92.76 C29.87 85.04, 17.99 74.93, 7 64.74 M40.51 94.41 C27.51 83.24, 14.67 71.52, 6.37 65.69 M46.88 93.72 C35.33 86.56, 21.88 72.26, 3.84 57.9 M47.79 94.68 C33.34 81.03, 16.91 67.47, 5.01 58.42 M52.95 92.36 C38.26 83.5, 25.54 71.38, 4.17 52.52 M53.14 93.13 C42.44 85, 31.97 76.16, 3.82 52.72 M56.06 92.61 C38.58 77.12, 22.59 66.22, 3.94 46.03 M57.13 92.25 C38.3 74.95, 18.49 59.92, 2.88 46.35 M58.34 90.27 C44.54 74.71, 31.12 65.47, 4.35 42.64 M59.48 89.56 C41.22 73.55, 24.06 60.07, 4.09 42 M64.9 86.38 C48.47 76.66, 35.77 65.07, 7.63 36.94 M64.26 87.19 C42.98 70.11, 21.14 50.87, 6.21 38.07 M66.14 85.5 C54.5 74.54, 42.35 67.01, 4.87 32.65 M67.41 87.41 C55.05 74.91, 40.7 64.24, 7.02 33.71 M73.58 86.5 C54.13 67.97, 38.84 55.25, 9.09 30.86 M72.86 85.65 C53.83 68.02, 34.44 53.12, 7.61 28.18 M77.17 83.49 C60 72.4, 49.76 60.08, 9.05 23.52 M75.12 82.57 C59.43 67.17, 41.54 51.86, 8.53 24.63 M78.81 78.58 C51.87 57.35, 23.11 33.89, 8.05 19.67 M77.15 79.13 C58.73 62.28, 38.91 45.82, 9.82 19.54 M78.27 74.77 C53.57 53.32, 27.87 29.65, 13.27 17.54 M79.42 76.63 C57.66 54.87, 33.91 35.91, 12.69 17.02 M83.11 70.19 C60.38 54.72, 40.81 35.71, 14.3 15.53 M82.27 71.22 C62.63 55.9, 44.62 39.42, 15.25 15.03 M85.6 69.52 C62.22 46.71, 35.95 28.7, 16.46 12.36 M84 68.52 C58.95 47.33, 34.08 24.35, 18.18 11.71 M84.5 65.63 C62.44 43.29, 37.51 22, 21.87 7.16 M84.95 65.46 C62.59 45.79, 40.77 25.23, 21.08 8.73 M87.85 61.67 C69.04 45.66, 51 30.99, 24.03 5.77 M87.63 59.6 C71.1 46.13, 55.34 32.61, 23.26 5.79 M87.3 56.64 C67.34 37.92, 51.04 23.28, 28.35 0.9 M87.27 54.95 C70.09 41.37, 55.36 26.4, 27.64 2 M88.19 50.88 C71.67 37.25, 57.83 26.13, 31.73 2.22 M87.2 50.64 C71.81 36.14, 57.22 24.13, 30.58 2.21 M87.85 43.62 C73.96 34.74, 61.77 22.25, 35.61 2.09 M87.43 44.68 C67.38 27.36, 47.48 10.68, 36.16 -0.09 M85.89 39.16 C70.58 23.73, 56.22 12.98, 42.3 -1.78 M86.22 39.4 C74.04 28.76, 61.19 16.9, 40.87 0.14 M87.04 32.37 C78.24 27.61, 69.88 19.61, 47.53 -2.07 M87.24 33.15 C70.63 20.71, 54.59 7, 45.4 -0.99 M79.92 24.33 C73.19 17.15, 63.82 6.95, 49.26 -1.65 M81.53 23.16 C70.44 13.59, 59.63 4.81, 51.74 -1.97" stroke="#15aabf" stroke-width="0.5" fill="none"></path><path d="M25.37 4.37 C31.95 -0.05, 41.93 -1.81, 49.83 -0.61 C57.73 0.6, 66.69 5.74, 72.79 11.59 C78.89 17.44, 84.17 26.26, 86.45 34.49 C88.72 42.73, 88.5 52.65, 86.45 61 C84.39 69.35, 80.16 78.76, 74.11 84.59 C68.06 90.42, 58.17 94.69, 50.15 95.98 C42.12 97.27, 33.16 95.95, 25.97 92.34 C18.78 88.73, 11.21 81.64, 7.01 74.31 C2.81 66.98, 0.5 57.3, 0.77 48.34 C1.03 39.38, 3.6 28.03, 8.6 20.53 C13.6 13.04, 26.28 6.45, 30.76 3.38 C35.24 0.32, 35.34 1.4, 35.48 2.16 M47.61 0.44 C55.5 -0.01, 64.97 4.3, 71.2 9.27 C77.43 14.23, 81.99 22.01, 84.97 30.24 C87.96 38.47, 90.58 50.02, 89.11 58.64 C87.64 67.26, 82.36 75.77, 76.16 81.96 C69.97 88.15, 59.74 93.79, 51.93 95.8 C44.13 97.82, 36.7 97.14, 29.33 94.06 C21.96 90.97, 12.37 84.79, 7.72 77.29 C3.07 69.79, 1.5 57.91, 1.44 49.07 C1.38 40.24, 3.23 31.64, 7.38 24.29 C11.52 16.93, 19.46 9.12, 26.3 4.93 C33.15 0.73, 44.94 -0.19, 48.43 -0.87 C51.93 -1.55, 47.45 0.07, 47.29 0.83" stroke="#000000" stroke-width="1" fill="none"></path></g><g stroke-linecap="round" transform="translate(10 124.35498046875) rotate(0 44.56561279296875 48.59259033203125)"><path d="M9.68 20.34 C9.68 20.34, 9.68 20.34, 9.68 20.34 M9.68 20.34 C9.68 20.34, 9.68 20.34, 9.68 20.34 M4.89 31.92 C12.85 21.64, 20.27 11.11, 30.41 5.34 M6.36 30.34 C13.76 22.47, 22.78 12.45, 28.91 4.6 M0.61 41.77 C14.27 30.99, 22.13 15.76, 33.11 2.87 M2.05 41.85 C13.8 28.08, 26.71 13.61, 33.84 3.39 M0.71 48.15 C12.17 34.73, 27.53 18.9, 42.94 4.55 M0.71 47.43 C12.8 36.44, 22.87 22.77, 41.91 3.12 M2.23 53.87 C20.61 33.9, 37.64 13.2, 47.88 0.38 M3.54 52.71 C15.74 37.68, 31.36 21.4, 45.78 2.01 M5.47 55.86 C16.95 44.04, 25.98 28.4, 52.16 0.26 M2.94 58.58 C14.62 44.04, 27.98 31.16, 53.27 1.84 M6.83 63.18 C21.11 42.68, 37.64 23.43, 57.87 4.11 M5.51 62.47 C23.71 39.96, 43.91 16.08, 56.18 4.34 M7.69 67.42 C16.07 53.86, 29.51 41.56, 59.71 5.1 M6.23 67.03 C23.54 47.47, 41 28.85, 59.2 5.72 M5.96 74.19 C22.16 55.32, 36.45 38.8, 65.25 9.31 M6.15 72.9 C23.48 53.44, 41.28 33.47, 63.5 6.59 M10.18 75.46 C31.5 51.58, 52.34 27.19, 65.14 8.2 M7.75 77.34 C27.03 55.36, 44.38 33.05, 67.02 9.78 M12.49 80.63 C28.65 57.76, 50.09 36.64, 71.23 11.49 M12.13 78.57 C26.12 62.33, 39.94 45.16, 69.92 11.38 M14.77 80.87 C30.22 67.05, 45.38 46.46, 72.8 13.97 M14.35 82.4 C35.54 56.48, 58.11 32.63, 74.98 12.92 M15.44 84.85 C41.15 56.75, 63.08 31.5, 77.45 17.75 M16.46 85.24 C37.43 63.67, 55.27 40.16, 77.7 15.91 M19.07 88.87 C37.35 69.67, 54.41 51.67, 79.15 18.63 M20.32 88.52 C38.28 64.94, 58.74 41.7, 78.62 19.44 M22.51 89.41 C42.12 70.18, 61.59 46.12, 79.93 24.16 M21.98 90.49 C40.84 70.2, 58.37 49.76, 80.17 24.52 M27.07 93.67 C43.9 75.97, 57.39 57.12, 81.94 27.92 M25.03 93.07 C37.93 78.97, 50.63 65.16, 82.97 27.7 M28.08 93.41 C46.24 76.99, 60.08 57.91, 85.7 30.85 M30.4 94.98 C44.62 78.83, 57.27 63.09, 85.32 30.62 M36.4 94.5 C53.4 71.58, 72.65 48.14, 88.97 33.09 M35.12 95.54 C56.16 71.14, 76.2 48.23, 88.26 33.17 M39.28 95 C50.39 82.52, 64.05 66.55, 92.22 35.48 M39.35 96.03 C55.46 77.21, 72.69 58.74, 90.26 37.26 M45.84 98.17 C54.57 83.37, 68.2 69.91, 88.21 45.46 M43.1 97.04 C56.59 83.48, 69.49 67.42, 89.05 43.98 M50.65 96.61 C63.8 80.77, 76.17 67.46, 88.06 48.77 M50.03 97.8 C61.91 82.68, 75.45 67.94, 88.88 49.62 M57.8 94.22 C67.83 83.41, 74.98 72.41, 89.58 57.36 M56.75 94.51 C68.94 81.87, 79.37 68.65, 89.06 56.83 M66.65 89.15 C71.39 81.81, 80.4 72.39, 89.38 63.91 M64.75 90.51 C75.29 79.83, 83.66 70.12, 89.32 63.44" stroke="#fa5252" stroke-width="0.5" fill="none"></path><path d="M50.8 0.63 C58.4 1.11, 67.23 6.38, 73.42 12.17 C79.61 17.95, 85.66 26.9, 87.96 35.32 C90.25 43.74, 89.9 54.11, 87.18 62.67 C84.46 71.23, 78.11 81.08, 71.66 86.68 C65.21 92.29, 56.5 95.4, 48.47 96.3 C40.43 97.2, 30.6 95.96, 23.45 92.08 C16.31 88.19, 9.48 80.56, 5.59 72.97 C1.7 65.38, -0.53 55.26, 0.11 46.55 C0.74 37.83, 4.72 27.86, 9.39 20.68 C14.06 13.49, 20.71 6.91, 28.14 3.45 C35.57 -0.01, 49.51 0.17, 53.96 -0.07 C58.41 -0.31, 55.01 1.03, 54.86 2 M32.29 2.16 C39.22 -1.16, 49.56 -1.98, 57.05 0.69 C64.53 3.36, 71.99 11.14, 77.19 18.16 C82.39 25.18, 87.24 34.46, 88.27 42.81 C89.3 51.16, 86.87 60.18, 83.37 68.28 C79.86 76.37, 73.89 86.65, 67.24 91.38 C60.58 96.12, 51.37 96.96, 43.45 96.71 C35.54 96.45, 26.65 94.66, 19.72 89.86 C12.79 85.06, 4.92 76.12, 1.87 67.92 C-1.18 59.72, -0.35 49.32, 1.42 40.68 C3.19 32.03, 7.57 22.48, 12.5 16.05 C17.42 9.63, 27.73 4.24, 30.97 2.14 C34.22 0.04, 31.79 2.69, 31.96 3.45" stroke="#000000" stroke-width="1" fill="none"></path></g><g stroke-linecap="round" transform="translate(102.469482421875 21.31768798828125) rotate(0 44.56561279296875 48.59259033203125)"><path d="M15.95 12.54 C15.95 12.54, 15.95 12.54, 15.95 12.54 M15.95 12.54 C15.95 12.54, 15.95 12.54, 15.95 12.54 M3.88 32.42 C8.1 25.82, 12.07 22.46, 28.74 6.56 M2.3 33.31 C13.78 22.6, 23.11 10.87, 28 5.57 M5.92 38.13 C14.22 27.66, 18.07 19.27, 36.24 1.83 M6 36.41 C15.92 25.99, 25.11 13.43, 36.77 0.5 M5.64 41.1 C13.9 35.61, 19.73 27.22, 43.4 0.85 M4.92 43.85 C17.73 30.26, 27.87 17.13, 41.98 2.39 M6.87 49.63 C17.95 36.51, 28.28 23.27, 44.61 2.24 M5.71 47.98 C20.52 33.47, 34.07 15.68, 46.25 1.35 M3.7 56.48 C19.68 36.98, 31.85 21.95, 49.22 1.78 M6.43 54.18 C17.11 42.62, 29.48 28.91, 50.81 3.2 M3.91 63.75 C17.38 45.85, 32.17 29.77, 56.19 5.28 M3.2 62.96 C24.47 39.02, 44.32 16.42, 56.42 2.53 M5.62 66.05 C23.82 46.16, 43.31 24.04, 59.65 4.8 M5.23 67.35 C17.23 53.89, 30.09 38.9, 60.26 4.16 M8.46 71.29 C18.46 57.35, 30.84 47.05, 65.65 6.31 M7.17 70.91 C18.92 58.4, 30.12 44.64, 62.94 7.05 M8.71 75.76 C24.59 57.36, 39.97 37.72, 65.69 9.38 M10.59 75.03 C32.82 48.11, 54.69 22.91, 67.27 9.15 M13.62 76.13 C27.2 61.45, 42.5 43.8, 70.14 10.65 M11.56 78.14 C33.94 52.02, 55.43 27.33, 70.03 11.09 M12.19 83.34 C32.34 64.05, 45.7 41.73, 73.76 15.45 M13.72 81.85 C29.91 62.8, 48.18 43.23, 72.72 15.1 M15.9 86.57 C32.17 65.41, 51.29 45.71, 77.18 17.32 M16.3 86.09 C29.8 70.21, 41.33 57.24, 75.35 16.67 M20.97 88.42 C41.04 66.06, 62.21 41.44, 77.71 20.14 M20.62 86.53 C41.83 61.6, 63.42 35.56, 78.51 19.9 M21.81 88.62 C39.35 72.23, 52.03 56.61, 82.12 22.33 M22.89 89.52 C40.68 69.29, 58.4 49.17, 82.48 21.99 M27.12 92.4 C40.02 75.6, 51.77 62.95, 83.55 25.32 M26.53 90.7 C39.67 76.37, 53.06 61.62, 83.33 26.82 M29.42 94.27 C51.43 69.49, 70.74 46.89, 84.81 30.18 M30.99 93.91 C48.09 72.56, 65.57 53.26, 84.58 31.89 M34.48 93.38 C54.25 69.54, 73.52 49.34, 84.72 37.59 M35.52 94.88 C44.78 82.48, 55.57 70.01, 84.8 35.49 M37.54 94.75 C54.77 78.29, 68.48 63.03, 85.44 40.53 M38.57 95.59 C49.26 84.09, 60.23 71.28, 87.22 39.58 M43.37 97.69 C52.53 86.92, 63.04 70.69, 90.07 44.48 M42.24 98.99 C59.94 80.48, 75.09 59.34, 88.59 45.21 M47.75 98.96 C55.92 87.53, 66.62 74.24, 89.35 48.8 M48.94 97.29 C61.03 83.4, 73.41 68.1, 90.2 48.16 M55.08 97.81 C62.48 86.7, 69.75 77.54, 89.97 57.03 M55.37 97.28 C66.47 84.1, 76.98 70, 89.44 56.41 M62.34 91.03 C71.66 83.03, 78.9 73.2, 87.79 66.16 M63.7 92.59 C69.21 85.49, 75.67 79.98, 87.32 63.68" stroke="#7950f2" stroke-width="0.5" fill="none"></path><path d="M36.15 -0.06 C43.45 -2.15, 53.67 0.39, 61.05 3.92 C68.43 7.44, 75.93 14.03, 80.44 21.08 C84.96 28.12, 87.71 37.51, 88.13 46.19 C88.54 54.87, 87.07 65.6, 82.93 73.18 C78.78 80.75, 70.55 87.76, 63.25 91.65 C55.95 95.54, 47 97.51, 39.12 96.5 C31.24 95.5, 22.03 91.18, 15.94 85.62 C9.86 80.06, 4.8 71.73, 2.6 63.13 C0.4 54.53, 0.5 42.47, 2.73 34.02 C4.97 25.58, 9.95 18.04, 16.01 12.47 C22.08 6.9, 34.47 2.39, 39.11 0.61 C43.76 -1.18, 43.63 1.14, 43.88 1.79 M64.87 5.01 C71.73 7.91, 77.59 15.3, 81.8 22.9 C86 30.5, 90.24 41.79, 90.11 50.61 C89.98 59.43, 86.2 68.66, 81.02 75.82 C75.85 82.98, 66.51 90.12, 59.08 93.55 C51.65 96.98, 44.21 98.09, 36.45 96.42 C28.68 94.74, 18.19 90.05, 12.51 83.5 C6.82 76.95, 3.74 65.78, 2.34 57.12 C0.94 48.47, 1.18 39.58, 4.11 31.57 C7.04 23.57, 13.31 14.5, 19.92 9.09 C26.53 3.68, 36.27 -0.23, 43.76 -0.9 C51.25 -1.58, 61.34 4.05, 64.85 5.02 C68.36 5.98, 65.18 4.3, 64.83 4.88" stroke="#000000" stroke-width="1" fill="none"></path></g><g transform="translate(128.68511962890625 205.389404296875) rotate(0 98.46257120768234 31.424224853515625)"><text x="0" y="43.848449707031264" font-family="Virgil, Segoe UI Emoji" font-size="50.278759765625004px" fill="#000000" text-anchor="start" style="white-space: pre;" direction="ltr">PyTorch</text></g></svg>