<svg version="1.1" xmlns="http://www.w3.org/2000/svg" viewBox="0 0 998.2276810031692 380.9984436035156" width="1996.4553620063384" height="761.9968872070312">
  <!-- svg-source:excalidraw -->
  
  <defs>
    <style>
      @font-face {
        font-family: "Virgil";
        src: url("https://excalidraw.com/Virgil.woff2");
      }
      @font-face {
        font-family: "Cascadia";
        src: url("https://excalidraw.com/Cascadia.woff2");
      }
    </style>
  </defs>
  <rect x="0" y="0" width="998.2276810031692" height="380.9984436035156" fill="#ffffff"></rect><g stroke-linecap="round" transform="translate(10 112.8209082483719) rotate(0 124.78010205667044 74.21218573897335)"><path d="M0 0 C0 0, 0 0, 0 0 M0 0 C0 0, 0 0, 0 0 M0.42 6.97 C1.25 3.87, 3.29 1.79, 5.45 0.49 M-0.37 6.7 C1.01 4.86, 3.08 2.83, 4.79 0.36 M0.09 10.77 C3.03 9.74, 3.19 6.51, 12.19 0.34 M0.58 11.45 C3.53 8.33, 7.81 4.28, 10.78 0.16 M-1.24 18.61 C3.07 16.34, 5.57 12.79, 15.68 -1.48 M-0.42 19.27 C5.08 12.06, 11.32 5.4, 16.36 -0.25 M2.18 24.89 C8.65 13.36, 16.92 6.37, 19.8 0.08 M0.59 24.5 C8.25 15.5, 14.89 8.12, 20.71 0.42 M1.43 31.36 C4.39 22.42, 10.59 19.54, 27.35 -0.92 M-0.15 30.62 C8.42 19.85, 17.32 10.77, 25.79 -0.29 M-1.3 35.15 C8.35 27.26, 14.65 15.51, 30.24 1.07 M0.23 36.3 C11.42 23.44, 23.89 10.01, 32.56 0.23 M-0.42 43.48 C12.54 32.11, 22.38 18.56, 36.79 0.02 M0.74 42.53 C7.73 33.69, 15.04 24.3, 36.16 -0.21 M-0.8 50.76 C13.57 31.16, 28.87 13.5, 43.16 1.16 M-1.02 49.06 C12.18 37.23, 21.65 22.99, 42.57 0.51 M1.08 54.12 C9.48 43.54, 20.35 31.22, 48.34 1.76 M1.15 54.15 C15.35 36.65, 31.37 19.06, 47.75 0.9 M0.01 62.25 C20.76 37.86, 39.35 14.26, 53.51 -2.06 M-0.85 60.75 C12.26 45.78, 25.52 31.29, 52.31 -1.03 M0.86 66.96 C23.12 39.91, 47.96 13.41, 57.06 1.5 M0.68 68.27 C20.17 43.54, 41.05 19.9, 58.7 0.3 M0.8 72.22 C23.53 44.13, 45.74 19.56, 61.97 -1.26 M-0.42 72.96 C23.01 47.63, 44.06 22.1, 63.78 -0.83 M1.53 81.23 C17.86 60.41, 34.4 39.62, 70.76 -0.76 M-0.67 79.26 C20.8 54.24, 41.94 30.47, 68.07 0.63 M2.01 86.02 C20.29 60.71, 40.1 38.83, 72.93 -1.31 M0 84.62 C28.09 52.23, 57.49 17.99, 74.33 -0.44 M-0.55 90.19 C22.68 63.62, 48.86 34.91, 79.92 -0.27 M0.48 90.62 C23.98 61.8, 50.22 33.17, 78.79 0.86 M-1.91 98.54 C26.69 68.7, 49.5 42.48, 84.51 -1.29 M-0.61 97.79 C29.72 63.18, 60.94 28.58, 85.74 0.43 M1.37 104.11 C21.21 81.42, 44.47 56.1, 91.79 -1.46 M0.59 102.95 C23.2 76.98, 46.87 51.31, 90.7 -0.66 M-1.78 109.22 C30.62 72.93, 61.43 36.13, 94.55 -0.53 M-0.43 109.61 C24.06 83.41, 48.47 55.65, 95.13 -1.08 M1.75 117.06 C22.53 85.64, 49.19 61.15, 100.29 -0.02 M-0.52 115.73 C34.27 73.2, 71.25 31.89, 101.52 0.79 M0.29 120.5 C42.8 73.31, 85.33 23.85, 106.59 -0.54 M0.29 121.87 C23.31 95.82, 45.27 69.49, 106.06 0.04 M0.1 129.64 C29.7 91.67, 62.54 52.25, 112.09 -0.83 M0.75 129.02 C38.87 83.88, 77.3 38.21, 111.85 -0.73 M-0.39 132.87 C39.61 86.51, 82.93 42.64, 115.25 1.68 M0.86 134.93 C25.75 104.83, 52.55 73.96, 116.81 0.43 M1.64 139.97 C30.66 107.08, 58.86 72.19, 120.57 0.01 M-0.69 139.5 C42 93.36, 82.4 45.19, 122.19 -0.81 M2.18 147.61 C50.4 88.2, 95.68 36.03, 126.83 0.65 M0.46 145.54 C26.56 115.2, 53.43 85.61, 126 0.29 M1.29 151.95 C46.8 98.07, 96.54 40.85, 131.83 1.16 M2.48 149.7 C44.28 100.31, 86.71 52.5, 131.95 0.35 M5.27 149.21 C53.02 99.76, 94.33 51.12, 137.38 0.95 M7.72 150.25 C48.5 103.61, 88.5 57, 137.69 0.98 M10.94 151.22 C61.56 92.86, 112.39 33.54, 142.7 -1.91 M12.23 150.98 C48.88 107.21, 85.05 63.98, 142.4 0.89 M15.72 149.52 C65.31 95.47, 116.32 38.34, 149.34 0.16 M18.01 150.52 C46.25 115.85, 76.19 84.58, 148.98 0.95 M25.12 150.57 C55.94 111.06, 89.35 72.19, 154.69 1.03 M23.81 149.91 C59.9 106.14, 96.76 63.06, 153.71 0.3 M27.73 148.68 C69.58 99.43, 110.43 54.02, 156.85 -0.32 M28.24 150.71 C61.57 111.54, 94.56 73.54, 158.37 -0.51 M34.6 148.74 C84.96 93.5, 131.16 35.92, 164.08 1 M34.42 150.1 C83.21 91.01, 135.75 32.95, 163.95 0.46 M38.21 151.09 C82.28 101.86, 123.34 54.4, 167.76 -1.35 M39.16 150.98 C74.55 108.22, 112.08 66.18, 168.74 -0.23 M43.87 150.27 C93.96 95.35, 143.02 38.95, 175.83 -0.2 M43.61 149.04 C90.25 98.1, 133.99 48.85, 176.07 0.59 M48.73 151.91 C96.79 93.85, 146.66 35.76, 181.68 0.01 M50.41 150.88 C102.36 91.96, 152.62 32.36, 180.37 -0.17 M57.14 151.48 C99.81 103.02, 138.48 56.32, 185.63 0 M54.35 149.07 C87.89 114.47, 118.78 77.32, 184.91 0.26 M59.63 151.12 C85.83 117.53, 114.26 87.6, 191.89 0.49 M59.53 150.29 C89.41 116.94, 118.18 84.3, 189.92 -0.45 M64.33 150.46 C107.14 102.32, 150.44 51.12, 197.91 -1.02 M66 150.38 C110.8 99.78, 153.9 49.09, 196.23 0.41 M71.93 151.43 C121.61 90.92, 170.05 36.34, 199.42 0.59 M70.94 150.47 C100.55 112.57, 131.85 78.34, 201.45 -0.33 M75.1 149.08 C126.75 95.21, 172.49 42.21, 207.78 -1.13 M77.3 150.03 C129.62 91.04, 180.57 30.94, 207.63 0.35 M81.4 148.38 C110.13 117.45, 140.11 82.12, 211 -1.41 M80.96 151.02 C113.72 114.84, 144.64 77.67, 211.4 0.79 M88.79 151.02 C137.22 89.66, 189.56 31.12, 219.11 0.59 M87.38 148.94 C128.76 101.92, 170.54 53.87, 217.63 -1.27 M92.51 148.26 C125.12 110.96, 161.01 68.45, 221.11 0.57 M92.78 150.93 C127.99 108.6, 162.93 69.4, 221.61 0.39 M96.51 151.7 C133.31 108.38, 169.29 65.82, 226.45 -2.14 M96.77 148.88 C146.11 94.81, 194.83 38.2, 228.65 0.57 M104.45 150.14 C130.3 117.24, 155.91 87.07, 233.91 -1.65 M103.51 149.52 C142.86 105.2, 182.73 59.26, 232.3 -0.22 M107.05 148.35 C139.6 113.6, 172.75 74.51, 236.43 -0.08 M108.37 149.49 C147.75 104.74, 186.93 58.77, 237.32 1.01 M113.12 151.9 C157.77 94.63, 208.81 41.3, 245.3 -0.42 M113.12 149.48 C158.83 99.34, 205.19 45.42, 243.11 -0.86 M116.28 150.72 C151.74 111.13, 185.17 73.9, 248.38 -1.48 M117.85 150.02 C153.38 110.3, 188.59 71.62, 248.15 1.27 M125.18 148.17 C175 92.24, 228.94 32.39, 250.93 3.92 M123.5 149.86 C169.14 97.96, 214.67 45.23, 252.06 2.79 M127.74 152.1 C154.63 118.65, 182.08 92.16, 253.14 6.77 M129.22 151.32 C164.02 110.5, 200.22 68.58, 251.35 8.51 M135.95 148.39 C163.84 118.15, 188.54 91.27, 253.56 16.11 M135.41 151.08 C170.98 108.36, 206.64 66.69, 252 15.17 M138.75 151.79 C174.75 105.82, 212.32 63.81, 252.1 20.97 M139.89 151.34 C182.42 101.39, 224.14 54.3, 252.81 20.64 M143.51 150.74 C174.19 116.89, 203.11 83.48, 252.14 26.07 M145.51 149.89 C180.54 111.55, 214.33 71.54, 252.59 27.97 M148.97 150.16 C190.52 103.94, 230.5 58.94, 250.7 32.96 M150.35 151.17 C171.6 125.19, 194.81 98.72, 252.68 31.72 M154.65 148.23 C181.32 122.35, 203.51 92.25, 250.73 39.04 M155.35 150.42 C190.49 110.27, 223.68 72.5, 252.33 39.33 M161.81 151.31 C189.68 116.2, 221.27 80.43, 253.81 43.13 M160.47 150.74 C190.57 116.6, 222.13 82.22, 251.72 43.92 M166.87 150.62 C195.81 114.92, 224.29 82.03, 253.17 52.31 M166.36 149.17 C190.72 121.47, 215.15 91.87, 252.12 51.46 M170.37 149.17 C201.41 117.82, 231.76 80.7, 250.39 59.42 M170.5 149.84 C192.78 126.84, 213.01 103.42, 252.9 57.53 M178.39 150.46 C196.94 126.37, 214.18 106.81, 251.67 62.19 M176.88 149.98 C196.23 126.68, 218.39 103.03, 252.93 62.71 M183.5 149.41 C202.92 125.41, 227.02 98.78, 254.05 68.26 M182.1 151.12 C207.76 122.13, 234.07 91.12, 253.07 68.93 M186.17 149.08 C208.78 124.55, 230.05 100.09, 252.16 74.77 M187.12 149.06 C209.5 124.31, 232.52 97.65, 252.12 75.27 M191.74 151.52 C211.97 130.58, 230.08 106.4, 253.18 81.16 M193.31 151.09 C209.69 128.81, 227.73 107.92, 252 82.12 M199.85 150.59 C212.28 136.14, 224.2 120.3, 251.63 88.7 M198.2 149.97 C209.63 135.82, 222.24 122.97, 251.76 88.96 M201.37 150.75 C212.81 138.23, 221.77 128.49, 251.54 93.62 M203.56 151.11 C218.53 133.81, 231.71 118.82, 252 92.73 M207.82 147.89 C226.53 131.19, 244.21 112.95, 250.75 98.12 M209.11 150.63 C222.51 135.04, 235.84 118.9, 252.32 99.19 M212.37 152.13 C224.36 139.67, 232.2 130.61, 253.6 103.95 M214.66 150.43 C223.82 140.33, 233.02 128.67, 252.28 105.72 M219.19 148.64 C232.46 138.83, 242.92 125.39, 251.95 111.23 M219.76 150.33 C229.71 136.8, 240.79 125.52, 251.64 112.48 M224.45 148.47 C233.49 141.41, 241.55 130.15, 253.9 119.98 M223.84 151.13 C232.45 140.62, 240.18 133.9, 251.28 119.18 M229.76 149.31 C234.97 144.76, 242.56 135.93, 252.03 125.23 M229.91 150.71 C236.28 142.48, 241.04 137.15, 252.66 124.47 M235.05 150.37 C242.75 144.49, 246.3 137.92, 253.65 130.07 M234.69 149.15 C241.77 143.68, 247.87 136.91, 252.29 130.28 M239.49 149.94 C244.21 144.56, 249.4 138.81, 250.98 137.81 M239.66 149.63 C243.86 147.01, 247.22 141.48, 251.12 136.46 M245.57 149.15 C249.11 146.57, 250.84 143.88, 251.62 142.08 M246.02 149.7 C247.31 148.37, 249.11 146.13, 252.46 142.69" stroke="#4c6ef5" stroke-width="0.5" fill="none"></path><path d="M-1.06 -0.66 C83.61 -1.07, 166.56 -1.51, 250.37 -1.42 M-0.54 -0.29 C87.53 0.45, 175.35 -0.37, 249.58 0.43 M248.89 1.31 C248.26 56.64, 249.58 116.2, 248.37 148.54 M249.67 0.38 C249.75 32.17, 249.53 65.31, 250.27 147.85 M249.4 148.97 C166.32 147.9, 81.51 147.4, 0.1 149.12 M249.89 148.29 C194.68 147.81, 138.08 148.93, -0.25 147.99 M-0.59 147.51 C-0.02 94.98, -0.21 40.94, -0.53 0.32 M0.75 147.89 C-1.64 103.4, -0.73 56.14, 0.37 -0.07" stroke="#000000" stroke-width="1" fill="none"></path></g><g stroke-linecap="round" transform="translate(301.32882125629044 10) rotate(0 124.78010205667044 74.21218573897335)"><path d="M0 0 C0 0, 0 0, 0 0 M0 0 C0 0, 0 0, 0 0 M-0.24 5.67 C2.34 3.97, 3.07 1.52, 5.65 -0.17 M0.04 6.17 C1.78 4.1, 3.05 2.88, 5.15 0.38 M-1.04 12.16 C3.22 10, 4.3 7.07, 11.29 1.3 M-0.31 12.43 C2.21 7.92, 6.45 6.02, 10.98 -0.58 M0.98 17.23 C4.07 12.87, 6.58 9.93, 15.91 -0.7 M-0.59 17.86 C3.27 14.65, 7.98 9.37, 14.76 0.48 M-1.38 25.25 C8.74 15.54, 12.18 9.85, 20.1 -1.41 M0.94 24.42 C7.2 16.97, 13.25 7.78, 21.74 0.9 M-0.08 30.25 C8.35 18.59, 20.81 8.08, 26.27 -0.21 M-0.71 30.02 C9.35 19.9, 17.79 10.37, 27.17 -0.5 M0.38 38.18 C8.04 24.92, 17.66 14.67, 32.17 1.75 M-0.21 37.53 C11.47 22.77, 24.8 9.06, 31.67 -0.62 M0.97 44.06 C13.07 30, 23.27 15.79, 36.06 0.67 M0.38 43.2 C9.03 32.65, 17.25 22.91, 37.52 0.89 M0.24 47.03 C10 37.3, 23.36 21.53, 42.11 -1.06 M-0.96 48.06 C13.91 32.82, 25.99 19.4, 42.32 -0.31 M-0.8 55.88 C13.27 42.3, 23.52 28.65, 49.33 -0.07 M0.83 54.68 C16.45 35.85, 31.77 19.3, 47.12 -0.1 M-1.8 59.91 C13.83 45.2, 23.72 31.15, 53.07 0.79 M0.01 60.34 C12.28 47.36, 25.88 33.56, 54.07 0.14 M1.74 66.44 C22.33 40.07, 45.1 14.42, 57.86 -0.69 M-0.95 67.83 C11.22 55.06, 23.25 41.74, 58.62 0.66 M-1.34 71.93 C15.3 58.9, 26.18 41.16, 62.94 -1.32 M0.07 72.8 C20.17 51.18, 39.99 27.4, 63.16 -0.6 M0.41 79.01 C19.38 57.86, 38.1 35.44, 67.13 -1.65 M-0.72 80.14 C13.82 63.57, 27.2 46.44, 69.12 1.13 M-0.25 84.02 C19.65 63.46, 37.44 42, 74.31 -1.21 M0.97 85.74 C25.95 53.19, 52.54 23.64, 74.73 -0.49 M1.77 89.89 C28.19 57.1, 59.32 23.5, 78.35 0.36 M0.69 90.7 C24.65 62.82, 48.61 32.21, 79.07 0.18 M-1.37 97.62 C19.33 74.91, 40.37 51.35, 84.51 0.07 M-0.79 97.06 C30.92 59.81, 64.68 23.27, 85.81 -1.14 M-0.22 103.41 C18.87 84.2, 36.59 59.74, 90.44 -1.56 M1.01 104.22 C22.83 78.87, 43.84 53.68, 89.32 0.48 M0.17 109.69 C26.11 76.69, 56.25 45.06, 95.57 0.26 M-0.35 110.26 C26.26 81.1, 53.56 50.48, 96.33 -0.8 M1.08 114.67 C36.61 76.43, 71.19 36.97, 102.06 1.46 M0.84 114.77 C34.44 77.07, 67.43 37.67, 100.12 -0.4 M-1.01 123.22 C21.28 93.59, 44.82 67.68, 108.25 -2.13 M0.55 121.97 C33.26 84.81, 67.2 46.76, 106.11 0.65 M-1.59 128.34 C39.84 81.17, 77.92 35.72, 109.57 0.09 M0.03 127.53 C33.2 92.98, 64.29 57.39, 112.09 0.95 M0.08 134.27 C22.41 105.58, 47.61 79.86, 115.36 -1.03 M-0.76 133.91 C32.02 98.6, 61.25 62.08, 117.18 -0.56 M-0.82 141.57 C46.17 87.87, 92.86 36.01, 121.06 0.76 M-0.71 140.76 C23.52 112.06, 48.55 83.51, 121.27 0.81 M0.14 146.64 C38.62 100.03, 76.68 59.59, 126.42 0.12 M0.44 146.68 C37.78 106.08, 71.72 63.11, 127.47 -0.13 M1.51 148.31 C44.75 101.96, 89.12 52.37, 134.31 -0.31 M1.21 151.11 C49.14 98.43, 94.34 45.25, 132.08 -0.68 M8.16 150.39 C54.59 91.16, 107.92 35.81, 137.66 -1.06 M7.79 151.17 C31.42 119.86, 59.09 90.49, 137.79 -0.09 M13.51 151.25 C57.07 100.76, 101.54 49.61, 142.86 0.9 M12.52 150.52 C40.99 118.63, 69.73 86.28, 142.3 -0.53 M15.66 149.9 C44.71 119.65, 72.5 88.65, 148.74 1.07 M17.19 149.71 C50.03 114.17, 81.05 77.83, 147.52 1.09 M22.89 151.22 C66.01 105.91, 103.37 60.07, 153.95 -1.84 M22.76 150.68 C52.84 114.77, 82.89 80.04, 154.16 0.12 M26.58 148.87 C67.99 104.71, 108.03 59.16, 159.98 -1.06 M27.56 149.99 C70.63 100.7, 112.26 53.14, 158.93 0.33 M34.64 150.02 C78.91 96.31, 125.3 44.13, 162.53 1.03 M34.88 150.81 C68.02 109.75, 101.63 69.98, 165.22 -1.03 M40.49 150.23 C81.94 104.06, 119.51 60.09, 170.47 1.74 M39.18 150.05 C82.26 100.7, 123.98 53.88, 170.18 0.89 M44.45 150.22 C87.5 99.28, 129.35 48.79, 173.29 0.86 M43.73 150.48 C84.44 105.08, 125.61 58.22, 175.47 -0.4 M50.7 150.71 C79.06 114.74, 110.72 76.07, 179.99 1.48 M48.73 149.77 C80.7 113.89, 110.98 77.58, 180.32 -0.59 M56.72 149.2 C101.62 97.38, 147.86 47.38, 186.6 0.79 M55.04 150.63 C107.96 90.4, 158.64 30.15, 186.27 0.45 M58.23 150.81 C87.14 118.53, 117.4 86.08, 191.05 -1.08 M60.26 149.89 C91.1 114.17, 119.09 80.53, 190.28 0.86 M66.6 149.09 C99.48 112.56, 128.47 78.78, 196.61 1.71 M66.44 150.57 C105.82 103.9, 146.91 55.82, 195.39 -0.19 M69.82 148.82 C109.72 104.42, 150.56 56.97, 202.86 1.6 M70.21 151.01 C116.26 99.78, 160.46 48.97, 201.9 -0.39 M77.92 150.82 C115.55 105.15, 153.42 61.36, 205.12 0.33 M76.44 148.95 C109.44 111.78, 143.22 72.36, 205.98 -1.18 M79.92 150.79 C124.45 102.54, 167.75 54.42, 213.37 1.85 M80.42 150.61 C109.98 116.19, 139.64 81.06, 212.88 0.34 M85.26 148.09 C130.55 100.74, 172 50.96, 215.7 -0.9 M87.46 150.79 C135.71 93.54, 186.96 36.3, 217.57 0.5 M92.72 148.57 C122.81 113.42, 154.03 81.13, 221.25 -1.2 M91.12 150 C144.25 89.45, 196.59 29.02, 221.86 -0.87 M95.9 149.39 C149.33 92.35, 197.85 33.91, 227.63 0.28 M96.79 150.48 C132.16 112.74, 166.05 73.44, 229.09 -1.29 M104.11 149.8 C141.72 104.45, 178.65 58.22, 231.87 0.33 M101.92 149.36 C149.77 95.59, 199.03 37.79, 233.31 0.41 M107.85 147.99 C142.93 108.2, 177.56 66.19, 237.22 0.67 M107.62 150.74 C135.08 118.38, 160.6 89.17, 237.22 -0.05 M111.71 151.88 C162.63 94.32, 210.71 34.85, 243.33 1.11 M112.85 150.75 C157.31 97.58, 203.83 44.8, 244.65 -0.05 M119.18 148.69 C146.71 113.81, 177.07 81.28, 250.51 -1.44 M117.38 150.43 C165.52 95.42, 214.08 41.33, 247.98 1.29 M124.84 152 C150.76 118.52, 177.22 89.11, 254.49 2.87 M123.28 151.05 C163.17 106.57, 202.36 60.93, 253.18 2.16 M128.63 150.81 C156.74 118.52, 183.29 89.72, 254.04 8.61 M129.34 150.49 C159.04 115.27, 188.73 79.45, 252.59 8.23 M134.57 149.13 C174.05 104.96, 209.55 62.71, 252.31 15.39 M135.03 151.03 C171.06 109.7, 204.7 68.25, 252.51 14.1 M137.72 150.73 C168.27 117.05, 198.84 81.85, 253.91 19.67 M139.71 149.49 C179.12 104.22, 220.75 57.29, 251.48 21.55 M143.65 150.02 C182.27 109.78, 216.54 67, 252.93 28.62 M145.26 150.31 C167.35 123.86, 189.8 99.65, 252.58 26.56 M151.33 148.83 C181.73 113.66, 212.73 77.44, 253.25 31.13 M149.24 149.62 C186.43 108.04, 222.55 65.42, 252.83 32.66 M156.59 151.21 C182.44 121.46, 208.45 89.79, 250.64 38.87 M155.55 150.36 C191.39 111.3, 223.74 71.56, 251.66 39.27 M159.06 152.28 C191.93 113.35, 226.19 74.47, 251.64 45.91 M161.57 150.39 C192.16 112.96, 225.69 76.26, 252.9 45.56 M165.59 149.01 C183.76 129.93, 201.28 107.81, 252.46 49.47 M166.85 149.54 C188.52 124.21, 211.26 98.46, 251.93 50.55 M173.22 149.05 C198.41 120.34, 221.37 90.66, 253.74 57.51 M172.24 149.72 C200.35 116.58, 228.58 83, 251.7 56.91 M176.58 149.53 C197.83 127.66, 217.7 104.79, 250.81 61.78 M176.54 150.02 C204.55 118.22, 231.96 86.76, 253.14 63.35 M182.85 149.87 C209.36 120.76, 238.51 89.11, 253.88 68.9 M181.67 150.84 C200.1 130.42, 218.06 109.23, 252.61 69.94 M187.2 150.62 C210.65 120.46, 236.87 93.33, 252.83 73.93 M187.34 150.88 C201.86 132.45, 217.42 113.58, 252.9 74.96 M191.71 150.26 C208.41 131.03, 222.92 114.91, 254.14 83.14 M192.17 149.37 C208.73 132.15, 223.61 114.5, 251.4 82.01 M196.82 147.97 C216.18 128.98, 232.2 108.2, 253.7 87.62 M198.39 149.03 C218.16 126.64, 238.86 102.51, 253.08 88.81 M204.26 148.51 C215.84 133.59, 229.5 119.67, 252.98 94.29 M202.95 150.28 C222.04 129.45, 240.32 107.74, 251.93 94.58 M208.52 149 C226.24 130.05, 243.88 110.58, 253.3 99.03 M208.21 150.25 C219.62 138.5, 229.42 125.36, 251.4 100.39 M215.71 151.71 C226.54 133.94, 240.27 118.36, 254.58 106.18 M213.09 150.91 C221.22 140.85, 228.52 131.78, 252.42 104.97 M219.1 150.93 C231.32 134.44, 246.82 119.38, 254.27 113.41 M219.73 150.16 C226.69 142.6, 232.96 134.65, 252.5 112.84 M225.97 149.72 C235.97 136.58, 244.44 125.5, 250.17 119.21 M224.6 149.94 C234.79 138.62, 244.25 127.8, 251.82 118.12 M229.09 150.77 C236.32 141.48, 244.11 134.92, 250.61 124.02 M229.24 149.27 C239.65 139.37, 247.13 129.77, 251.57 124.9 M233.66 149.19 C238.37 144.79, 241.88 142.14, 250.69 129.27 M235.34 150.42 C240.4 142.38, 246.31 137.28, 251.46 130.57 M240.08 151.9 C244.24 147.3, 249.23 141.01, 252.35 135.8 M240.73 150.67 C243.43 146.99, 245.37 144.82, 252.03 137.37 M245.98 150.81 C246.99 148.24, 248.34 146.13, 252.6 142.43 M245.95 150.43 C247.2 148.79, 248.33 146.81, 252.24 142.26" stroke="#15aabf" stroke-width="0.5" fill="none"></path><path d="M0.1 0.7 C67.35 -0.2, 137.14 1.79, 249.29 1.11 M-0.25 -0.43 C60.72 -2.23, 120.04 -1.83, 249.19 -0.49 M249.03 0.32 C248.72 54.37, 247.9 107.42, 248.49 147.24 M249.93 -0.07 C249.48 56.78, 249.17 113.92, 249.98 148.87 M248.81 146.88 C163.2 147.14, 77.82 147.04, 0.72 149.16 M248.8 148.93 C168.83 149.64, 87.6 150.24, 0.59 148.09 M1.15 148.75 C0.44 110.63, 1.75 73.27, 1.5 -1.85 M-0.48 148.41 C-1.03 90.97, -0.12 31.99, -0.8 0.38" stroke="#000000" stroke-width="1" fill="none"></path></g><g stroke-linecap="round" transform="translate(501.4315338742181 222.57407212556893) rotate(0 124.78010205667044 74.21218573897335)"><path d="M0 0 C0 0, 0 0, 0 0 M0 0 C0 0, 0 0, 0 0 M-0.99 6.97 C0.93 4.17, 2.11 4, 4.45 0.53 M-0.49 6.73 C0.81 4.63, 2.97 3.23, 5.01 0.06 M0.25 12.78 C4.12 7.75, 7.23 5.15, 11.96 -0.51 M0.52 11.31 C2.63 8.91, 7.35 4.71, 10.08 -0.66 M-1.34 19.08 C2.53 13.15, 7.84 8.92, 14.59 -0.98 M-0.71 18.08 C4.54 14.33, 7.72 7.96, 15.77 0.51 M1.44 25.64 C3.74 17.62, 10.04 13.19, 19.91 0.49 M0.6 24.04 C6.6 16.67, 10.89 11.65, 22.23 0.82 M-0.23 28.75 C8.9 20.6, 19.18 9.7, 25.74 0.85 M-0.46 30.98 C5.12 24.33, 11.29 18.25, 25.46 0.07 M1.04 36 C5.77 27.75, 13.49 19.38, 33.74 1.6 M0.39 36.03 C7.82 27.87, 16.26 18.45, 31.37 0.26 M1.68 43.02 C12.24 28.74, 22.65 17.63, 37.29 -1.05 M0.82 43.17 C14.49 26.26, 28.93 10.24, 37.51 -0.08 M-2.01 47.82 C15.18 33.86, 26.27 16.66, 41.6 -0.05 M-0.98 49.87 C10.51 35.71, 23.87 21.82, 42.35 -0.57 M1.59 55.78 C19.51 34.02, 37.34 16.4, 47.22 0.7 M0.39 55.26 C11.6 40.63, 25.15 25.13, 47.18 -0.46 M-1.04 61.85 C9.15 47.52, 20.03 36.64, 54.11 -1.47 M-0.61 60.51 C14.76 45.62, 29.24 29.88, 53.46 0.66 M-1.17 67.42 C14.49 48.44, 30.92 28.94, 57.26 -1.8 M0.22 67.01 C17.53 48.71, 34.24 30.16, 58.6 -0.66 M-0.92 74.81 C24.3 46.64, 44.79 21.02, 62.67 0.05 M-0.05 73.02 C19.66 51.87, 37.13 30.21, 63.39 -0.35 M-0.5 79.74 C26.56 49.26, 52.29 18.98, 66.96 -1.74 M0.62 79.33 C22.27 53.8, 43.3 29.84, 69.75 -0.4 M-0.74 86.16 C20.92 61.35, 41.78 35.86, 73.44 0.95 M0.98 84.38 C24 55.04, 50.12 27.29, 74.16 0.52 M-1.53 90.56 C30.58 55.95, 61.9 19.29, 79.64 0.43 M-0.72 91.75 C30.16 55.54, 58.44 21.4, 79.45 -0.51 M-0.46 96.81 C22.54 72.4, 44.58 46.39, 85.39 1.36 M-1.02 97.2 C31.36 61.78, 64.52 24.9, 84.18 -1.26 M0.08 104.65 C33.82 67.42, 62.37 30.13, 88.38 -1.04 M0.89 104.45 C29.37 69.92, 57.94 36.27, 90.42 0.07 M-0.31 108.12 C33.93 70.12, 69.47 30.84, 96.24 -0.85 M0.27 109.73 C26.96 81.58, 52.1 51.73, 95.18 0.22 M-0.56 116.49 C32.41 80.33, 64.04 46.63, 102.07 0.82 M-0.47 116 C33.61 76.94, 65.9 39.37, 100.2 -0.7 M1.33 120.46 C41.42 71.95, 85.34 27.07, 104.52 -0.09 M0.07 121.35 C28.23 90.42, 55.42 59.02, 107.3 0.21 M-0.22 129.06 C34.24 86.77, 70.45 44.37, 111.36 -0.3 M-1.03 129.13 C26.62 98.8, 53.07 70.03, 112.22 -0.98 M0.47 132.13 C26.51 101.81, 55.64 68.56, 114.87 -0.31 M0.1 134.61 C31.87 97.6, 62.52 63.04, 115.34 1.14 M1.11 140.77 C38.01 98.61, 76.68 53.36, 122.7 -1.97 M0.29 140.68 C48.72 85.85, 97.16 28.63, 122.75 -0.03 M0.93 146.19 C33.47 105.41, 72.3 63.48, 126.68 0 M0.96 146.93 C33.17 108.57, 62.95 73.83, 126.44 0.57 M0.17 149.75 C32.55 117.47, 61.7 82.54, 132.3 0.92 M2.97 150.87 C34.05 115.57, 64.52 78.68, 131.92 0.78 M6.87 148.83 C50.7 98.94, 98.47 44.97, 136.17 -1.66 M7.65 150.06 C58.4 90.73, 111.13 30.46, 137.13 0.68 M13.78 149.82 C47.16 111.43, 79.91 72.71, 144.17 -1.77 M13.05 150.3 C52.85 106.02, 92.01 59.36, 142.74 -1.05 M17.05 149.54 C44.71 120.53, 71.69 89.45, 148.96 -0.84 M16.86 151.24 C59.89 102.84, 102.04 54.31, 148.98 0.32 M24.41 151.89 C54.02 116.24, 83.02 83.5, 152.09 -1.48 M23.87 150.3 C70.24 96.14, 117.78 41.95, 154.05 -0.09 M26.68 150.06 C62.39 111.97, 96.82 73.42, 157.49 0.65 M27.81 151.09 C67.06 105.18, 108.14 58.35, 158.88 0.71 M33.87 150.74 C80.53 95.89, 128.67 36.85, 165.62 -0.92 M34.66 150.79 C79.14 95.59, 125.06 42.89, 163.56 -0.06 M38.71 152.29 C71.97 110.65, 107.3 74.98, 170.97 0.7 M38.53 150.59 C70.45 112.14, 104.9 76.02, 170.11 0.48 M44.74 148.9 C70.29 116.4, 96.49 84.94, 176.12 -0.08 M44.99 149.07 C76.65 115.59, 106.81 79.89, 174.86 -0.76 M49.86 148.85 C95.3 96.31, 138.07 46.12, 181.37 -1.08 M48.91 150.63 C88.66 104.82, 128.08 59.52, 179.29 0.62 M54.38 150.62 C87.59 112.73, 122.5 73.87, 186.71 1.76 M55.81 150.85 C96.7 102.15, 137.61 55.97, 186.38 -1.12 M60.62 149.11 C92.84 115.08, 125.09 75.89, 189.47 -1.35 M59.7 150.96 C89.44 112.79, 121.45 76.73, 191.42 -0.45 M64.93 151.84 C101.93 105.87, 141.72 63.96, 198.3 0.05 M66.42 149.2 C110.04 98.97, 152.16 49.64, 196.4 -0.16 M69.29 149.13 C113.77 101.54, 155.1 55.31, 202.81 0.94 M71.49 151.24 C111.73 105.45, 152.31 59.47, 200.82 0.05 M77.33 150.25 C113.01 105.92, 150.66 61.73, 207.58 -1.06 M75.46 149.6 C124.29 95.59, 170.74 41.76, 206.07 -0.03 M81.92 149.69 C113.76 115.76, 145.6 81.61, 213.73 -1.44 M81.75 150.03 C124.64 101.32, 166.99 51.82, 212.22 0.3 M85.26 151.25 C127.23 104.83, 166.72 55.67, 217.02 1.32 M87.97 148.93 C130.1 101.5, 172.18 52.88, 218.41 -0.97 M90.38 150.3 C131.2 103.67, 174.86 55.37, 221.34 2 M91.8 149.76 C124.21 113, 156.87 74.13, 221.68 0.88 M97.23 149.94 C125.95 117.13, 153.35 85.95, 228.87 -1.22 M98.32 150.44 C135.86 109.88, 171.71 67.8, 227.29 -0.34 M102.27 151.18 C154.09 88.02, 205.16 28.67, 233.54 1.47 M101.83 149.76 C154.12 93.86, 202.27 36.55, 233.62 -0.26 M106.49 149.16 C150.25 99.39, 191.9 51.09, 238.51 -1.6 M109.24 150.78 C149.92 101.5, 193.87 50.83, 237.79 1.15 M115.01 151.29 C164.85 92.77, 212.87 34.43, 244.98 0.89 M113.88 149.26 C154.52 102.93, 195.66 55.17, 243.82 -0.76 M116.45 150.22 C164.14 94.41, 214.37 40.07, 247.06 1.7 M118.18 149.75 C159.32 104.62, 201.23 57.44, 249.79 -0.6 M125.79 150.27 C162.2 104.2, 202.86 61.16, 253.17 2.18 M124.84 150.35 C158.81 112.53, 191.63 73.01, 252.47 1.39 M129.24 151.88 C171.53 101.74, 217.17 53.04, 252.26 7.5 M128.91 150.27 C164.96 107.14, 200.48 66.31, 251.88 8.8 M133.59 150.51 C158.08 119.13, 184.6 91.81, 253.79 14.25 M135.49 151.05 C170.47 107.91, 205.26 68.06, 252.5 13.87 M139.82 148.88 C169.23 117.41, 197.21 86.36, 251.41 21.74 M138.58 149.92 C173.39 112.16, 206.57 71.23, 253.29 21.01 M145.14 151.11 C179.53 112.19, 211.22 75.96, 253.71 25.13 M145.43 150.24 C175.54 114.55, 207.95 78.14, 251.64 27.14 M148.58 150.94 C187.84 106.17, 225.91 63.91, 250.96 33.85 M149.37 150.9 C188.8 106.53, 227.28 62.24, 252.49 32.36 M157 149.88 C178.38 124.97, 197.92 98.77, 252.05 40.1 M156.15 150.7 C176.35 126.1, 195.86 103.05, 252.44 39.61 M162.7 149.47 C193.26 115.25, 223.75 76.7, 253.84 45.72 M160.81 149.82 C190.24 116, 220.5 81.07, 253.49 43.83 M165.47 149.37 C195.24 116.94, 221.96 86.17, 250.74 50.44 M165.99 150.12 C201.35 110.18, 236.2 70.39, 251.82 51.35 M170.13 151.63 C199.39 115.68, 227.63 87.11, 252.11 58.76 M170.8 150.67 C201.37 114.54, 231.38 80.39, 251.52 57.05 M176.64 150.83 C193.62 132.44, 209.56 109.96, 251.13 64.4 M177.14 150.05 C199.32 124.65, 221.81 99.25, 252.71 64.04 M181.62 150.28 C204.79 127.9, 225.37 103.76, 251.6 68.79 M182.58 149.84 C203.53 126.52, 223.62 104.66, 252.64 70.29 M188.41 148.22 C202.55 131.42, 219.79 112.47, 251.38 73.93 M188.67 148.95 C209.84 124.17, 230.56 100.07, 252.41 74.78 M192.67 150.01 C204.45 134.08, 219.39 121.77, 253.93 80.65 M191.78 151.1 C208.73 131.77, 225.33 110.76, 252.8 81.95 M196.42 150.26 C219.43 124.13, 240.72 102.9, 251.75 89.47 M197.48 149.16 C210.7 135.32, 222.23 122.03, 252.94 87.8 M201.59 149.11 C218.81 130, 237.06 113.06, 253.17 95.11 M203.36 150.62 C218.9 133.18, 233.56 114.85, 253.46 94.58 M208.11 150.34 C224.48 132.92, 240.38 114.88, 251.25 98.89 M209.36 149.93 C222.32 135.01, 233.91 120.3, 252.61 100.45 M215.45 149.61 C225.09 135.76, 236.9 123.86, 253.16 103.68 M214.65 149.95 C227.17 134.06, 240.71 118.79, 251.94 106.62 M220.71 148.59 C229.03 139.82, 238.79 128.97, 253.72 110.08 M219.94 150.36 C230.07 138.37, 239.81 126.6, 253.16 112.76 M224.13 151.24 C229.57 141.38, 237.12 132.08, 252.87 119.35 M224.34 151.04 C233.4 140.1, 242.97 128.02, 251.78 118.16 M231.21 149.88 C235.52 144.11, 242.55 132.62, 252.43 125.86 M229.71 150.49 C235.77 142.64, 242.11 135.25, 253.31 123.37 M234.26 149.47 C239.57 143.2, 246.62 136.58, 251.02 131.54 M235.49 149.23 C238.57 144.27, 244.58 139.6, 252.32 130.9 M241.6 150.51 C244.84 147.77, 246.4 143.39, 250.89 135.67 M240.36 150.92 C242.72 146.72, 246.6 143.78, 252.46 136.15 M246.55 149.78 C247.15 147.93, 248.23 146.72, 252.27 141.61 M246.16 150.17 C248.48 147.15, 250.48 144.37, 252.1 142.13" stroke="#be4bdb" stroke-width="0.5" fill="none"></path><path d="M0.7 -1.27 C70.78 -0.23, 144.89 -0.4, 250.67 -0.96 M-0.43 0.55 C55.45 0.33, 111.94 0.25, 249.07 0.46 M249.88 0.18 C252.22 33.65, 252.32 67.5, 248.38 150.12 M249.49 -0.55 C248.46 48.32, 248.51 98.78, 250.01 148.85 M248.01 147.48 C167.07 146.6, 86.01 148.22, 0.73 148.84 M250.07 148.84 C164.63 146.85, 80.21 147.12, -0.33 148.03 M0.32 148.62 C0.14 107.82, 0.07 65.71, -1.85 1.84 M-0.01 147.68 C-0.02 101.14, -0.8 52.72, 0.38 0.28" stroke="#000000" stroke-width="1" fill="none"></path></g><g stroke-linecap="round" transform="translate(738.6674768898283 34.3126501205345) rotate(0 124.78010205667044 74.21218573897335)"><path d="M0 0 C0 0, 0 0, 0 0 M0 0 C0 0, 0 0, 0 0 M1.7 23.88 C6.78 14.18, 18.46 3.9, 21.7 -0.62 M1.11 23.23 C6.78 17.21, 14.31 8.36, 20.52 0.09 M0.8 49.82 C14.04 32.86, 30.04 17.22, 41.92 0.27 M-1.04 47.94 C16.68 31.38, 31.95 11.95, 41.74 -0.45 M0.78 71.6 C24.37 44.35, 49.97 14.91, 62.47 -0.86 M-0.21 73.51 C22.1 48.73, 41.54 25.29, 63.96 -1.16 M1.32 96.81 C17.6 76.77, 36.85 52.92, 85.6 -0.99 M-0.28 98.82 C30.9 59.66, 64.97 23.29, 85.93 0.17 M-1.71 121.88 C36.5 81.93, 71.92 38.91, 106.86 -1.93 M0.52 121.21 C32.22 86.42, 63.8 50.31, 106.08 -0.96 M-0.59 144.18 C31.82 106.36, 64.48 72.96, 128.61 -0.74 M-0.56 145.87 C27.99 113.75, 55.35 80.99, 127.27 0.17 M11.49 159.54 C50.92 110.39, 93.61 60.97, 147.01 1.84 M11.62 157.85 C43.86 119.3, 77.15 81.98, 147.86 0.48 M31.34 158.83 C60.43 125.86, 86.82 94.85, 169.5 -0.19 M33.15 157.1 C81.98 103.74, 130.2 47.36, 169.05 0.82 M54.65 159.23 C89.4 117.67, 127.3 74.71, 191.11 -0.49 M54.18 157.24 C106.28 97.22, 158.14 35.84, 190.09 -0.73 M75.62 156.68 C123.55 101.27, 173.68 46.94, 210.8 -0.61 M74.43 158.03 C103.32 127.17, 131.46 94.61, 212.68 -0.12 M96.14 156.65 C143.7 101.38, 191.67 45.68, 231.44 -0.3 M95.79 158.37 C127.75 122.61, 158.89 86.95, 232.46 0.46 M118.96 158.91 C151.89 118.2, 186.49 78.08, 252.73 1.98 M117.37 158.19 C147.26 123.28, 176.65 88.81, 252.37 2.81 M138.29 159.01 C163.31 129.18, 188.68 96.13, 250.22 27.38 M137.88 158.37 C165.04 125.46, 193.37 96.05, 251.56 26.92 M160.34 158.11 C194.85 118.22, 228.6 78.18, 253.56 51.86 M158.56 157.78 C194.42 116.06, 232.12 73.01, 253.13 51.96 M179.59 158.36 C203.3 133.02, 224.99 105.76, 252.95 76.77 M180.78 159.16 C207.65 125.1, 236.62 93.18, 252.01 74.81 M200.71 157.8 C212.92 144.81, 223.69 133.05, 253.89 101.59 M201.1 157.96 C220.04 139.22, 237.66 117.58, 251.27 100.6 M224.16 160.07 C233.97 144.79, 243.82 133.03, 251.39 124.47 M223.96 158.21 C230.17 149.48, 236.79 141.23, 252.5 124.68 M-0.28 148.18 C-0.28 148.18, -0.28 148.18, -0.28 148.18 M-0.28 148.18 C-0.28 148.18, -0.28 148.18, -0.28 148.18 M25.53 149.3 C19.35 145.86, 15.33 140.7, 0.42 127.42 M25.04 148.63 C17.86 142.83, 11.75 137.37, -1.1 127.9 M47.18 148.1 C29.71 134.99, 16.21 116.77, 0.59 105.4 M48.07 148.99 C36.08 138.36, 23.27 127.64, 0.89 106.55 M74.22 147.37 C49.6 127.11, 25.2 107.93, -0.05 83.64 M74.29 148.74 C58.76 136.26, 44.66 123.46, -0.73 84.47 M95.73 147.68 C61.53 117.52, 24.43 84.38, -0.49 63.25 M98.21 149.1 C63.53 118.62, 31.58 88.63, 0.96 63.88 M122.04 148.08 C91.56 122.44, 58.04 94.81, -1.83 44.5 M121.95 147.46 C94.46 123.05, 64.68 99.98, 0.12 42.35 M146.66 146.91 C94.3 104.75, 40.81 57.29, -0.28 20.25 M147.4 149.47 C105.84 114.39, 67.91 80.45, 0.28 20.59 M170.22 148.58 C120.47 101.09, 68.41 56.36, 0.82 -1.02 M171.18 148.18 C130.72 113.09, 88.77 77.57, 0.7 0.43 M194.01 147.53 C134.54 95.84, 71.84 40.65, 8.86 -10.46 M195.03 148.69 C134.41 97.75, 73.21 43.92, 10.79 -12.44 M219.24 149.74 C159.5 98.47, 99.6 46.63, 33.18 -12.34 M219.64 148.16 C182.09 115.67, 142.56 82.35, 33.78 -13.08 M242.8 148.42 C182.95 93.75, 121.16 40.45, 58.49 -11.61 M244.2 148.11 C195.72 105.33, 147.03 63.74, 59.44 -12.58 M259.37 140.33 C211.21 100.82, 165.49 58.17, 82.33 -11.13 M258.02 138.96 C206.34 94.69, 154.54 49.87, 83.51 -12.51 M257.39 118.69 C205.02 70.62, 152.18 21.87, 108.74 -11.62 M258.42 117.15 C207.16 72.01, 155 27.31, 108.8 -11.13 M258.39 95.02 C223.88 64.46, 185.09 36.91, 131.64 -10.98 M258.45 96.86 C209.83 56.61, 163.5 15.32, 132.5 -12.57 M259.51 74.83 C232.73 57.14, 211.56 36.7, 156.98 -13.37 M257.82 74.59 C227.08 50.33, 198.53 24.13, 156.76 -13.24 M256.45 54.05 C225.18 26.39, 194.99 2.59, 181.44 -13.2 M256.63 54.99 C237.41 36.17, 216.47 17.96, 180.75 -11.52 M255.98 34.02 C239.62 18.01, 225.1 6.6, 204.16 -12.09 M257.75 32.94 C239.07 16.13, 221.53 0.2, 205.86 -12.7 M258.07 10.36 C252.41 6.41, 244.94 1.23, 232.23 -11.53 M258.3 12.61 C247.9 4.79, 240.14 -2.89, 229.35 -12.3" stroke="#fa5252" stroke-width="2" fill="none"></path><path d="M-1.27 -1.33 C60.89 -0.21, 121.72 0.24, 248.6 -1.23 M0.55 -0.64 C94.03 0.84, 188.28 0.59, 250.02 -0.56 M249.74 1.41 C248.53 58.53, 248.09 112.87, 251.25 149.05 M249.01 -0.3 C249.25 36.22, 250.53 73.36, 249.98 148.67 M248.62 146.9 C170.88 144.87, 94.72 147.22, 0.41 149.09 M249.98 148.52 C161.25 150.38, 72.88 149.35, -0.4 148.29 M0.2 147.92 C0.65 109.7, 0.64 70.27, 1.84 0.39 M-0.74 149.17 C0.89 96.15, -0.08 44.31, 0.28 -1" stroke="#000000" stroke-width="4" fill="none"></path></g><g stroke-linecap="round"><g transform="translate(260.2374723138603 181.09237934800876) rotate(61.75937281747943 21.55752103084876 -55.67259868038451)"><path d="M-0.55 -0.69 C6.79 -19.27, 36.09 -92.49, 43.66 -111.1 M1.36 1.56 C8.54 -17.4, 35.3 -94.08, 42.49 -112.9" stroke="#000000" stroke-width="1" fill="none"></path></g><g transform="translate(260.2374723138603 181.09237934800876) rotate(61.75937281747943 21.55752103084876 -55.67259868038451)"><path d="M41.35 -83.62 C43.44 -89.6, 41.37 -100.68, 42.79 -112.54 M43.09 -82.12 C42.23 -89.9, 43.23 -95.79, 41.82 -112.62" stroke="#000000" stroke-width="1" fill="none"></path></g><g transform="translate(260.2374723138603 181.09237934800876) rotate(61.75937281747943 21.55752103084876 -55.67259868038451)"><path d="M22.06 -90.63 C29.33 -94.65, 32.42 -103.85, 42.79 -112.54 M23.8 -89.13 C26.84 -95.31, 31.79 -99.76, 41.82 -112.62" stroke="#000000" stroke-width="1" fill="none"></path></g></g><g stroke-linecap="round"><g transform="translate(511.1942670016888 126.04151302188353) rotate(0 39.4157236795819 78.08244680713844)"><path d="M0.82 0.78 C14.11 26.73, 65.97 130.07, 79.05 156.03 M-0.21 0.14 C12.97 25.69, 64.87 128.32, 77.99 154.06" stroke="#000000" stroke-width="1" fill="none"></path></g><g transform="translate(511.1942670016888 126.04151302188353) rotate(0 39.4157236795819 78.08244680713844)"><path d="M57.37 133.22 C61.88 138.33, 67.95 144.52, 77.31 154.54 M55.53 134.07 C60.98 137.04, 64.72 141.55, 78.03 153.84" stroke="#000000" stroke-width="1" fill="none"></path></g><g transform="translate(511.1942670016888 126.04151302188353) rotate(0 39.4157236795819 78.08244680713844)"><path d="M75.67 123.93 C75.81 131.4, 77.48 139.82, 77.31 154.54 M73.83 124.78 C75.61 129.44, 75.68 135.83, 78.03 153.84" stroke="#000000" stroke-width="1" fill="none"></path></g></g><g stroke-linecap="round"><g transform="translate(728.910447885607 257.5756408104144) rotate(0 60.981752522518036 -59.12924111673348)"><path d="M0.64 -1 C20.68 -20.6, 100.36 -98.17, 120.28 -117.82 M-0.48 1.09 C19.91 -18.79, 101.96 -99.57, 122.45 -119.34" stroke="#000000" stroke-width="1" fill="none"></path></g><g transform="translate(728.910447885607 257.5756408104144) rotate(0 60.981752522518036 -59.12924111673348)"><path d="M107.77 -94.03 C115.36 -102.5, 117.54 -107.72, 122.05 -119.69 M108.9 -91.65 C113.21 -98.45, 115.6 -105.24, 123.36 -119.49" stroke="#000000" stroke-width="1" fill="none"></path></g><g transform="translate(728.910447885607 257.5756408104144) rotate(0 60.981752522518036 -59.12924111673348)"><path d="M93.43 -108.72 C105.36 -112.8, 111.9 -113.54, 122.05 -119.69 M94.57 -106.34 C102.66 -109.3, 108.75 -112.31, 123.36 -119.49" stroke="#000000" stroke-width="1" fill="none"></path></g></g></svg>